# Blender 5.0.1
# www.blender.org
mtllib profile_34_hollow_strip_40x20.mtl
o profile_34_hollow_strip_40x20
v 1.503826 -0.010000 -0.419221
v 1.503826 0.010000 -0.419221
v 1.503826 -0.010000 -0.509221
v 1.503826 0.010000 -0.509221
v 1.543826 -0.010000 -0.419221
v 1.543826 0.010000 -0.419221
v 1.543826 -0.010000 -0.509221
v 1.543826 0.010000 -0.509221
v 1.535826 -0.010000 -0.509221
v 1.511826 -0.010000 -0.509221
v 1.511826 0.010000 -0.509221
v 1.535826 0.010000 -0.509221
v 1.511826 -0.010000 -0.419221
v 1.535826 -0.010000 -0.419221
v 1.535826 0.010000 -0.419221
v 1.511826 0.010000 -0.419221
v 1.503826 -0.004000 -0.419221
v 1.503826 0.004000 -0.419221
v 1.503826 0.004000 -0.509221
v 1.503826 -0.004000 -0.509221
v 1.543826 0.004000 -0.509221
v 1.543826 -0.004000 -0.509221
v 1.543826 0.004000 -0.419221
v 1.543826 -0.004000 -0.419221
v 1.535826 0.004000 -0.419221
v 1.535826 -0.004000 -0.419221
v 1.511826 0.004000 -0.419221
v 1.511826 -0.004000 -0.419221
v 1.511826 0.004000 -0.509221
v 1.511826 -0.004000 -0.509221
v 1.535826 0.004000 -0.509221
v 1.535826 -0.004000 -0.509221
vn -1.0000 -0.0000 -0.0000
vn -0.0000 -0.0000 -1.0000
vn 1.0000 -0.0000 -0.0000
vn -0.0000 -0.0000 1.0000
vn -0.0000 -1.0000 -0.0000
vn -0.0000 1.0000 -0.0000
vt 0.541667 0.000000
vt 0.625000 0.000000
vt 0.625000 0.250000
vt 0.541667 0.250000
vt 0.541667 0.416667
vt 0.625000 0.416667
vt 0.625000 0.500000
vt 0.541667 0.500000
vt 0.625000 0.750000
vt 0.541667 0.750000
vt 0.541667 0.916667
vt 0.625000 0.916667
vt 0.625000 1.000000
vt 0.541667 1.000000
vt 0.291667 0.500000
vt 0.375000 0.500000
vt 0.375000 0.750000
vt 0.291667 0.750000
vt 0.791667 0.500000
vt 0.875000 0.500000
vt 0.875000 0.750000
vt 0.791667 0.750000
vt 0.708333 0.500000
vt 0.708333 0.750000
vt 0.125000 0.500000
vt 0.208333 0.500000
vt 0.208333 0.750000
vt 0.125000 0.750000
vt 0.625000 0.833333
vt 0.541667 0.833333
vt 0.625000 0.333333
vt 0.541667 0.333333
vt 0.375000 0.333333
vt 0.458333 0.333333
vt 0.458333 0.416667
vt 0.375000 0.416667
vt 0.458333 0.916667
vt 0.375000 0.250000
vt 0.458333 0.250000
vt 0.375000 0.833333
vt 0.458333 0.833333
vt 0.375000 0.916667
vt 0.458333 0.750000
vt 0.458333 1.000000
vt 0.375000 1.000000
vt 0.458333 0.500000
vt 0.375000 0.000000
vt 0.458333 0.000000
s 0
f 18/1/1 2/2/1 4/3/1 19/4/1
f 31/5/2 12/6/2 8/7/2 21/8/2
f 21/8/3 8/7/3 6/9/3 23/10/3
f 27/11/4 16/12/4 2/13/4 18/14/4
f 9/15/5 7/16/5 5/17/5 14/18/5
f 11/19/6 4/20/6 2/21/6 16/22/6
f 8/7/6 12/23/6 15/24/6 6/9/6
f 12/23/6 11/19/6 16/22/6 15/24/6
f 3/25/5 10/26/5 13/27/5 1/28/5
f 10/26/5 9/15/5 14/18/5 13/27/5
f 23/10/4 6/9/4 15/29/4 25/30/4
f 25/30/4 15/29/4 16/12/4 27/11/4
f 19/4/2 4/3/2 11/31/2 29/32/2
f 29/32/2 11/31/2 12/6/2 31/5/2
f 10/33/2 30/34/2 32/35/2 9/36/2
f 28/37/3 30/34/3 29/32/3 27/11/3
f 3/38/2 20/39/2 30/34/2 10/33/2
f 20/39/2 19/4/2 29/32/2 30/34/2
f 14/40/4 26/41/4 28/37/4 13/42/4
f 30/34/6 28/37/6 26/41/6 32/35/6
f 5/17/4 24/43/4 26/41/4 14/40/4
f 24/43/4 23/10/4 25/30/4 26/41/4
f 13/42/4 28/37/4 17/44/4 1/45/4
f 28/37/4 27/11/4 18/14/4 17/44/4
f 7/16/3 22/46/3 24/43/3 5/17/3
f 22/46/3 21/8/3 23/10/3 24/43/3
f 9/36/2 32/35/2 22/46/2 7/16/2
f 32/35/2 31/5/2 21/8/2 22/46/2
f 1/47/1 17/48/1 20/39/1 3/38/1
f 17/48/1 18/1/1 19/4/1 20/39/1
f 29/32/5 31/5/5 25/30/5 27/11/5
f 26/41/1 25/30/1 31/5/1 32/35/1
