# Blender 5.0.1
# www.blender.org
mtllib profile_41_round_pipe_80x10.mtl
o profile_41_round_pipe_80x10
v 2.587157 0.057889 -0.497474
v 2.554430 0.057889 -0.464747
v 2.587157 0.057889 -0.468383
v 2.554430 0.057889 -0.501111
v 2.558066 0.057889 -0.497474
v 2.590793 0.057889 -0.464747
v 2.558066 0.057889 -0.468383
v 2.590793 0.057889 -0.501111
v 2.554430 -0.042111 -0.501111
v 2.558066 -0.042111 -0.497474
v 2.587157 -0.042111 -0.497474
v 2.590793 -0.042111 -0.501111
v 2.554430 -0.042111 -0.464747
v 2.558066 -0.042111 -0.468383
v 2.587157 -0.042111 -0.468383
v 2.590793 -0.042111 -0.464747
v 2.549316 0.057889 -0.472986
v 2.547611 0.057889 -0.482929
v 2.549316 0.057889 -0.492872
v 2.580566 0.057889 -0.464292
v 2.572612 0.057889 -0.462929
v 2.564657 0.057889 -0.464292
v 2.562668 0.057889 -0.506224
v 2.572612 0.057889 -0.507929
v 2.582555 0.057889 -0.506224
v 2.553975 0.057889 -0.474974
v 2.552612 0.057889 -0.482929
v 2.553975 0.057889 -0.490883
v 2.591248 0.057889 -0.490883
v 2.592612 0.057889 -0.482929
v 2.591248 0.057889 -0.474974
v 2.595907 0.057889 -0.492872
v 2.597612 0.057889 -0.482929
v 2.595907 0.057889 -0.472986
v 2.564657 0.057889 -0.501565
v 2.572612 0.057889 -0.502929
v 2.580566 0.057889 -0.501565
v 2.582555 0.057889 -0.459633
v 2.572612 0.057889 -0.457929
v 2.562668 0.057889 -0.459633
v 2.549316 -0.042111 -0.472986
v 2.547611 -0.042111 -0.482929
v 2.549316 -0.042111 -0.492872
v 2.580566 -0.042111 -0.464292
v 2.572612 -0.042111 -0.462929
v 2.564657 -0.042111 -0.464292
v 2.562668 -0.042111 -0.506224
v 2.572612 -0.042111 -0.507929
v 2.582555 -0.042111 -0.506224
v 2.553975 -0.042111 -0.474974
v 2.552612 -0.042111 -0.482929
v 2.553975 -0.042111 -0.490883
v 2.591248 -0.042111 -0.490883
v 2.592612 -0.042111 -0.482929
v 2.591248 -0.042111 -0.474974
v 2.595907 -0.042111 -0.492872
v 2.597612 -0.042111 -0.482929
v 2.595907 -0.042111 -0.472986
v 2.564657 -0.042111 -0.501565
v 2.572612 -0.042111 -0.502929
v 2.580566 -0.042111 -0.501565
v 2.582555 -0.042111 -0.459633
v 2.572612 -0.042111 -0.457929
v 2.562668 -0.042111 -0.459633
vn -0.3547 -0.0000 0.9350
vn -0.0000 -0.0000 1.0000
vn 0.3547 -0.0000 0.9350
vn -0.7071 -0.0000 0.7071
vn 0.7071 -0.0000 0.7071
vn -0.9350 -0.0000 0.3547
vn -1.0000 -0.0000 -0.0000
vn -0.9350 -0.0000 -0.3547
vn -0.7071 -0.0000 -0.7071
vn 0.3547 -0.0000 -0.9350
vn -0.0000 -0.0000 -1.0000
vn -0.3547 -0.0000 -0.9350
vn 0.7071 -0.0000 -0.7071
vn 0.9350 -0.0000 0.3547
vn 1.0000 -0.0000 -0.0000
vn 0.9350 -0.0000 -0.3547
vn -0.0000 -1.0000 -0.0000
vn -0.0000 1.0000 -0.0000
vt 0.000000 0.000000
s 1
f 40/1/1 64/1/1 63/1/2 39/1/2
f 39/1/2 63/1/2 62/1/3 38/1/3
f 13/1/4 64/1/1 40/1/1 2/1/4
f 62/1/3 16/1/5 6/1/5 38/1/3
f 35/1/3 59/1/3 60/1/2 36/1/2
f 36/1/2 60/1/2 61/1/1 37/1/1
f 10/1/5 59/1/3 35/1/3 5/1/5
f 61/1/1 11/1/4 1/1/4 37/1/1
f 29/1/6 53/1/6 54/1/7 30/1/7
f 30/1/7 54/1/7 55/1/8 31/1/8
f 1/1/4 11/1/4 53/1/6 29/1/6
f 55/1/8 15/1/9 3/1/9 31/1/8
f 25/1/10 49/1/10 48/1/11 24/1/11
f 24/1/11 48/1/11 47/1/12 23/1/12
f 12/1/13 49/1/10 25/1/10 8/1/13
f 47/1/12 9/1/9 4/1/9 23/1/12
f 34/1/14 58/1/14 57/1/15 33/1/15
f 33/1/15 57/1/15 56/1/16 32/1/16
f 6/1/5 16/1/5 58/1/14 34/1/14
f 56/1/16 12/1/13 8/1/13 32/1/16
f 26/1/16 50/1/16 51/1/15 27/1/15
f 44/1/17 15/1/17 16/1/17 62/1/17
f 27/1/15 51/1/15 52/1/14 28/1/14
f 14/1/17 46/1/17 64/1/17 13/1/17
f 45/1/17 44/1/17 62/1/17 63/1/17
f 14/1/13 50/1/16 26/1/16 7/1/13
f 42/1/17 51/1/17 50/1/17 41/1/17
f 46/1/17 45/1/17 63/1/17 64/1/17
f 43/1/17 52/1/17 51/1/17 42/1/17
f 41/1/17 50/1/17 14/1/17 13/1/17
f 52/1/14 10/1/5 5/1/5 28/1/14
f 47/1/17 59/1/17 10/1/17 9/1/17
f 48/1/17 60/1/17 59/1/17 47/1/17
f 20/1/12 44/1/12 45/1/11 21/1/11
f 53/1/17 11/1/17 12/1/17 56/1/17
f 21/1/11 45/1/11 46/1/10 22/1/10
f 15/1/17 55/1/17 58/1/17 16/1/17
f 54/1/17 53/1/17 56/1/17 57/1/17
f 3/1/9 15/1/9 44/1/12 20/1/12
f 21/1/18 39/1/18 38/1/18 20/1/18
f 12/1/17 11/1/17 61/1/17 49/1/17
f 55/1/17 54/1/17 57/1/17 58/1/17
f 22/1/18 40/1/18 39/1/18 21/1/18
f 20/1/18 38/1/18 6/1/18 3/1/18
f 46/1/10 14/1/13 7/1/13 22/1/10
f 17/1/18 2/1/18 7/1/18 26/1/18
f 49/1/17 61/1/17 60/1/17 48/1/17
f 9/1/17 10/1/17 52/1/17 43/1/17
f 18/1/18 17/1/18 26/1/18 27/1/18
f 19/1/8 43/1/8 42/1/7 18/1/7
f 23/1/18 4/1/18 5/1/18 35/1/18
f 18/1/7 42/1/7 41/1/6 17/1/6
f 8/1/18 25/1/18 37/1/18 1/1/18
f 24/1/18 23/1/18 35/1/18 36/1/18
f 4/1/9 9/1/9 43/1/8 19/1/8
f 30/1/18 33/1/18 32/1/18 29/1/18
f 4/1/18 19/1/18 28/1/18 5/1/18
f 25/1/18 24/1/18 36/1/18 37/1/18
f 31/1/18 34/1/18 33/1/18 30/1/18
f 29/1/18 32/1/18 8/1/18 1/1/18
f 41/1/6 13/1/4 2/1/4 17/1/6
f 3/1/18 6/1/18 34/1/18 31/1/18
f 19/1/18 18/1/18 27/1/18 28/1/18
f 7/1/18 2/1/18 40/1/18 22/1/18
