# Blender 5.0.1
# www.blender.org
mtllib profile_50_square_100x100.mtl
o profile_50_square_100x100
v 1.060821 -0.000736 -0.760237
v 1.060821 0.099264 -0.760237
v 1.160821 -0.000736 -0.760237
v 1.160821 0.099264 -0.760237
v 1.068821 0.007264 -0.760237
v 1.068821 0.091264 -0.760237
v 1.152821 0.007264 -0.760237
v 1.152821 0.091264 -0.760237
v 1.060821 -0.000736 -0.660237
v 1.060821 0.099264 -0.660237
v 1.160821 0.099264 -0.660237
v 1.160821 -0.000736 -0.660237
v 1.068821 0.007264 -0.660237
v 1.068821 0.091264 -0.660237
v 1.152821 0.091264 -0.660237
v 1.152821 0.007264 -0.660237
vn -0.0000 -0.0000 -1.0000
vn -0.0000 -0.0000 1.0000
vn -0.0000 -1.0000 -0.0000
vn -1.0000 -0.0000 -0.0000
vn -0.0000 1.0000 -0.0000
vn 1.0000 -0.0000 -0.0000
vt 0.000000 0.000000
s 0
f 2/1/1 4/1/1 8/1/1 6/1/1
f 3/1/1 7/1/1 8/1/1 4/1/1
f 3/1/1 1/1/1 5/1/1 7/1/1
f 2/1/1 6/1/1 5/1/1 1/1/1
f 10/1/2 14/1/2 15/1/2 11/1/2
f 12/1/2 11/1/2 15/1/2 16/1/2
f 12/1/2 16/1/2 13/1/2 9/1/2
f 10/1/2 9/1/2 13/1/2 14/1/2
f 6/1/3 8/1/3 15/1/3 14/1/3
f 8/1/4 7/1/4 16/1/4 15/1/4
f 4/1/5 2/1/5 10/1/5 11/1/5
f 3/1/6 4/1/6 11/1/6 12/1/6
f 7/1/5 5/1/5 13/1/5 16/1/5
f 5/1/6 6/1/6 14/1/6 13/1/6
f 1/1/3 3/1/3 12/1/3 9/1/3
f 2/1/4 1/1/4 9/1/4 10/1/4
