# Blender 5.0.1
# www.blender.org
mtllib profile_04_C_channel__50x50.mtl
o profile_04_C_channel__50x50
v 0.689751 -0.000184 -0.064127
v 0.739751 -0.000184 -0.064127
v 0.689751 0.049816 -0.064127
v 0.739751 0.049816 -0.064127
v 0.695216 0.049625 -0.064127
v 0.695216 0.004753 -0.064127
v 0.734286 0.004753 -0.064127
v 0.734286 0.049625 -0.064127
v 0.689751 -0.000184 0.000415
v 0.739751 -0.000184 0.000415
v 0.689751 0.049816 0.000415
v 0.739751 0.049816 0.000415
v 0.695216 0.049625 0.000415
v 0.695216 0.004753 0.000415
v 0.734286 0.004753 0.000415
v 0.734286 0.049625 0.000415
vn -0.0000 -0.0000 -1.0000
vn -0.0000 -0.0000 1.0000
vn 0.0350 0.9994 -0.0000
vn 1.0000 -0.0000 -0.0000
vn -1.0000 -0.0000 -0.0000
vn -0.0000 1.0000 -0.0000
vn -0.0000 -1.0000 -0.0000
vn -0.0350 0.9994 -0.0000
vt 0.023901 0.023901
vt 0.000000 0.000000
vt 0.000000 1.000000
vt 0.023901 0.976099
vt 0.976099 0.023901
vt 1.000000 0.000000
vt 0.976099 0.976099
vt 1.000000 1.000000
s 0
f 6/1/1 1/2/1 3/3/1 5/4/1
f 7/5/1 2/6/1 1/2/1 6/1/1
f 8/7/1 4/8/1 2/6/1 7/5/1
f 14/1/2 13/4/2 11/3/2 9/2/2
f 15/5/2 14/1/2 9/2/2 10/6/2
f 16/7/2 15/5/2 10/6/2 12/8/2
f 5/4/3 3/3/3 11/3/3 13/4/3
f 2/6/4 4/8/4 12/8/4 10/6/4
f 3/3/5 1/2/5 9/2/5 11/3/5
f 7/5/6 6/1/6 14/1/6 15/5/6
f 1/2/7 2/6/7 10/6/7 9/2/7
f 8/7/5 7/5/5 15/5/5 16/7/5
f 6/1/4 5/4/4 13/4/4 14/1/4
f 4/8/8 8/7/8 16/7/8 12/8/8
