# Blender 5.0.1
# www.blender.org
mtllib profile_20_door_100x20x6.mtl
o profile_20_door_100x20x6
v 1.019691 0.007332 -0.309736
v 1.119691 0.007332 -0.309736
v 1.019691 0.027332 -0.309736
v 1.119691 0.027332 -0.309736
v 1.019691 0.023332 -0.309736
v 1.019691 0.011332 -0.309736
v 1.119691 0.011332 -0.309736
v 1.119691 0.023332 -0.309736
v 1.025691 0.007332 -0.309736
v 1.113691 0.007332 -0.309736
v 1.113691 0.027332 -0.309736
v 1.025691 0.027332 -0.309736
v 1.113691 0.011332 -0.309736
v 1.025691 0.011332 -0.309736
v 1.113691 0.023332 -0.309736
v 1.025691 0.023332 -0.309736
v 1.072691 0.007332 -0.309736
v 1.066691 0.007332 -0.309736
v 1.066691 0.027332 -0.309736
v 1.072691 0.027332 -0.309736
v 1.072691 0.011332 -0.309736
v 1.066691 0.011332 -0.309736
v 1.066691 0.023332 -0.309736
v 1.072691 0.023332 -0.309736
v 1.019691 0.011332 -0.230972
v 1.019691 0.007332 -0.230972
v 1.113691 0.007332 -0.230972
v 1.119691 0.007332 -0.230972
v 1.119691 0.023332 -0.230972
v 1.119691 0.027332 -0.230972
v 1.025691 0.027332 -0.230972
v 1.019691 0.027332 -0.230972
v 1.019691 0.023332 -0.230972
v 1.119691 0.011332 -0.230972
v 1.025691 0.011332 -0.230972
v 1.025691 0.023332 -0.230972
v 1.025691 0.007332 -0.230972
v 1.113691 0.027332 -0.230972
v 1.113691 0.011332 -0.230972
v 1.113691 0.023332 -0.230972
v 1.066691 0.023332 -0.230972
v 1.072691 0.023332 -0.230972
v 1.072691 0.027332 -0.230972
v 1.066691 0.027332 -0.230972
v 1.066691 0.007332 -0.230972
v 1.072691 0.007332 -0.230972
v 1.072691 0.011332 -0.230972
v 1.066691 0.011332 -0.230972
vn -0.0000 -0.0000 -1.0000
vn -0.0000 -0.0000 1.0000
vn -0.0000 1.0000 -0.0000
vn -1.0000 -0.0000 -0.0000
vn -0.0000 -1.0000 -0.0000
vn 1.0000 -0.0000 -0.0000
vt 0.666667 0.666667
vt 0.666667 1.000000
vt 1.000000 1.000000
vt 1.000000 0.666667
vt 0.666667 0.000000
vt 0.666667 0.333333
vt 1.000000 0.333333
vt 1.000000 0.000000
vt 0.000000 0.333333
vt 0.000000 0.666667
vt 0.333333 0.666667
vt 0.333333 0.333333
vt 0.000000 0.000000
vt 0.333333 0.000000
vt 0.000000 1.000000
vt 0.333333 1.000000
vt 0.511489 0.666667
vt 0.488511 0.666667
vt 0.488511 1.000000
vt 0.511489 1.000000
vt 0.511489 0.000000
vt 0.488511 0.000000
vt 0.488511 0.333333
vt 0.511489 0.333333
s 0
f 15/1/1 11/2/1 4/3/1 8/4/1
f 10/5/1 13/6/1 7/7/1 2/8/1
f 13/6/1 15/1/1 8/4/1 7/7/1
f 6/9/1 5/10/1 16/11/1 14/12/1
f 1/13/1 6/9/1 14/12/1 9/14/1
f 5/10/1 3/15/1 12/16/1 16/11/1
f 24/17/1 23/18/1 19/19/1 20/20/1
f 17/21/1 18/22/1 22/23/1 21/24/1
f 21/24/1 22/23/1 23/18/1 24/17/1
f 17/21/1 21/24/1 13/6/1 10/5/1
f 9/14/1 14/12/1 22/23/1 18/22/1
f 16/11/1 12/16/1 19/19/1 23/18/1
f 24/17/1 20/20/1 11/2/1 15/1/1
f 27/5/2 28/8/2 34/7/2 39/6/2
f 40/1/2 29/4/2 30/3/2 38/2/2
f 39/6/2 34/7/2 29/4/2 40/1/2
f 25/9/2 35/12/2 36/11/2 33/10/2
f 26/13/2 37/14/2 35/12/2 25/9/2
f 33/10/2 36/11/2 31/16/2 32/15/2
f 42/17/2 43/20/2 44/19/2 41/18/2
f 46/21/2 47/24/2 48/23/2 45/22/2
f 47/24/2 42/17/2 41/18/2 48/23/2
f 46/21/2 27/5/2 39/6/2 47/24/2
f 37/14/2 45/22/2 48/23/2 35/12/2
f 36/11/2 41/18/2 44/19/2 31/16/2
f 42/17/2 40/1/2 38/2/2 43/20/2
f 12/16/3 3/15/3 32/15/3 31/16/3
f 22/23/3 14/12/3 35/12/3 48/23/3
f 4/3/3 11/2/3 38/2/3 30/3/3
f 3/15/4 5/10/4 33/10/4 32/15/4
f 16/11/5 23/18/5 41/18/5 36/11/5
f 5/10/4 6/9/4 25/9/4 33/10/4
f 19/19/3 12/16/3 31/16/3 44/19/3
f 21/24/6 24/17/6 42/17/6 47/24/6
f 2/8/6 7/7/6 34/7/6 28/8/6
f 24/17/5 15/1/5 40/1/5 42/17/5
f 14/12/6 16/11/6 36/11/6 35/12/6
f 23/18/4 22/23/4 48/23/4 41/18/4
f 7/7/6 8/4/6 29/4/6 34/7/6
f 20/20/3 19/19/3 44/19/3 43/20/3
f 11/2/3 20/20/3 43/20/3 38/2/3
f 6/9/4 1/13/4 26/13/4 25/9/4
f 15/1/4 13/6/4 39/6/4 40/1/4
f 17/21/5 10/5/5 27/5/5 46/21/5
f 10/5/5 2/8/5 28/8/5 27/5/5
f 13/6/3 21/24/3 47/24/3 39/6/3
f 18/22/5 17/21/5 46/21/5 45/22/5
f 8/4/6 4/3/6 30/3/6 29/4/6
f 9/14/5 18/22/5 45/22/5 37/14/5
f 1/13/5 9/14/5 37/14/5 26/13/5
