# Blender 5.0.1
# www.blender.org
mtllib profile_53_railing_65x32.5.mtl
o profile_53_railing_65x32.5
v 1.586911 -0.010979 -0.736484
v 1.603163 0.020417 -0.736484
v 1.586911 0.012980 -0.736484
v 1.611289 0.021437 -0.736484
v 1.603163 0.013667 -0.736484
v 1.619416 0.021602 -0.736484
v 1.595190 0.018835 -0.736484
v 1.595190 -0.010979 -0.736484
v 1.595190 0.011978 -0.736484
v 1.619416 0.015214 -0.736484
v 1.592452 0.017949 -0.736484
v 1.588172 0.015712 -0.736484
v 1.588136 -0.010979 -0.736484
v 1.592454 -0.010979 -0.736484
v 1.586911 -0.005456 -0.736484
v 1.619416 -0.003643 -0.736484
v 1.595190 -0.003669 -0.736484
v 1.603163 -0.003618 -0.736484
v 1.611289 -0.003617 -0.736484
v 1.588144 -0.004832 -0.736484
v 1.592454 -0.004208 -0.736484
v 1.611289 0.014813 -0.736484
v 1.588163 0.009151 -0.736484
v 1.592452 0.010872 -0.736484
v 1.586911 0.007092 -0.736484
v 1.592453 0.003016 -0.736484
v 1.611289 0.003090 -0.736484
v 1.603163 0.003045 -0.736484
v 1.586911 0.000644 -0.736484
v 1.588153 0.001965 -0.736484
v 1.595190 0.003048 -0.736484
v 1.619416 0.003107 -0.736484
v 1.586911 -0.010979 -0.686484
v 1.603163 0.020417 -0.686484
v 1.586911 0.012980 -0.686484
v 1.611289 0.021437 -0.686484
v 1.603163 0.013667 -0.686484
v 1.619416 0.021602 -0.686484
v 1.595190 0.018835 -0.686484
v 1.595190 -0.010979 -0.686484
v 1.595190 0.011978 -0.686484
v 1.619416 0.015214 -0.686484
v 1.592452 0.017949 -0.686484
v 1.588172 0.015712 -0.686484
v 1.588136 -0.010979 -0.686484
v 1.592454 -0.010979 -0.686484
v 1.586911 -0.005456 -0.686484
v 1.619416 -0.003643 -0.686484
v 1.595190 -0.003669 -0.686484
v 1.603163 -0.003618 -0.686484
v 1.611289 -0.003617 -0.686484
v 1.588144 -0.004832 -0.686484
v 1.592454 -0.004208 -0.686484
v 1.611289 0.014813 -0.686484
v 1.588163 0.009151 -0.686484
v 1.592452 0.010872 -0.686484
v 1.586911 0.007092 -0.686484
v 1.592453 0.003016 -0.686484
v 1.611289 0.003090 -0.686484
v 1.603163 0.003045 -0.686484
v 1.586911 0.000644 -0.686484
v 1.588153 0.001965 -0.686484
v 1.595190 0.003048 -0.686484
v 1.619416 0.003107 -0.686484
v 1.651920 -0.010979 -0.736484
v 1.635668 0.020417 -0.736484
v 1.651920 0.012980 -0.736484
v 1.627542 0.021437 -0.736484
v 1.635668 0.013667 -0.736484
v 1.643641 0.018835 -0.736484
v 1.643641 -0.010979 -0.736484
v 1.643641 0.011978 -0.736484
v 1.646379 0.017949 -0.736484
v 1.650659 0.015712 -0.736484
v 1.650695 -0.010979 -0.736484
v 1.646377 -0.010979 -0.736484
v 1.651920 -0.005456 -0.736484
v 1.643641 -0.003669 -0.736484
v 1.635668 -0.003618 -0.736484
v 1.627542 -0.003617 -0.736484
v 1.650687 -0.004832 -0.736484
v 1.646377 -0.004208 -0.736484
v 1.627542 0.014813 -0.736484
v 1.650668 0.009151 -0.736484
v 1.646379 0.010872 -0.736484
v 1.651920 0.007092 -0.736484
v 1.646378 0.003016 -0.736484
v 1.627542 0.003090 -0.736484
v 1.635668 0.003045 -0.736484
v 1.651920 0.000644 -0.736484
v 1.650678 0.001965 -0.736484
v 1.643641 0.003048 -0.736484
v 1.651920 -0.010979 -0.686484
v 1.635668 0.020417 -0.686484
v 1.651920 0.012980 -0.686484
v 1.627542 0.021437 -0.686484
v 1.635668 0.013667 -0.686484
v 1.643641 0.018835 -0.686484
v 1.643641 -0.010979 -0.686484
v 1.643641 0.011978 -0.686484
v 1.646379 0.017949 -0.686484
v 1.650659 0.015712 -0.686484
v 1.650695 -0.010979 -0.686484
v 1.646377 -0.010979 -0.686484
v 1.651920 -0.005456 -0.686484
v 1.643641 -0.003669 -0.686484
v 1.635668 -0.003618 -0.686484
v 1.627542 -0.003617 -0.686484
v 1.650687 -0.004832 -0.686484
v 1.646377 -0.004208 -0.686484
v 1.627542 0.014813 -0.686484
v 1.650668 0.009151 -0.686484
v 1.646379 0.010872 -0.686484
v 1.651920 0.007092 -0.686484
v 1.646378 0.003016 -0.686484
v 1.627542 0.003090 -0.686484
v 1.635668 0.003045 -0.686484
v 1.651920 0.000644 -0.686484
v 1.650678 0.001965 -0.686484
v 1.643641 0.003048 -0.686484
vn -0.0000 -0.0000 -1.0000
vn -0.0000 -0.0000 1.0000
vn -0.2517 0.9678 -0.0000
vn -0.3870 0.9221 -0.0000
vn -1.0000 -0.0000 -0.0000
vn 0.0064 -1.0000 -0.0000
vn 0.0033 -1.0000 -0.0000
vn -0.4632 0.8862 -0.0000
vn -0.0015 -1.0000 -0.0000
vn -0.0032 -1.0000 -0.0000
vn -0.0000 -1.0000 -0.0000
vn 1.0000 -0.0000 -0.0000
vn -0.1597 0.9872 -0.0000
vn -0.9767 0.2146 -0.0000
vn -0.0056 1.0000 -0.0000
vn -0.0117 0.9999 -0.0000
vn -0.0725 0.9974 -0.0000
vn -0.0021 1.0000 -0.0000
vn -0.0038 1.0000 -0.0000
vn -0.9079 0.4191 -0.0000
vn -0.0025 1.0000 -0.0000
vn 1.0000 0.0001 -0.0000
vn 0.1736 -0.9848 -0.0000
vn 0.0945 -0.9955 -0.0000
vn -0.0202 0.9998 -0.0000
vn 0.2919 -0.9564 -0.0000
vn 0.0493 -0.9988 -0.0000
vn 0.3743 -0.9273 -0.0000
vn 0.2517 0.9678 -0.0000
vn 0.3870 0.9221 -0.0000
vn -0.0064 -1.0000 -0.0000
vn -0.0033 -1.0000 -0.0000
vn 0.4632 0.8862 -0.0000
vn 0.0015 -1.0000 -0.0000
vn 0.0032 -1.0000 -0.0000
vn 0.1597 0.9872 -0.0000
vn 0.9767 0.2146 -0.0000
vn 0.0056 1.0000 -0.0000
vn 0.0117 0.9999 -0.0000
vn 0.0725 0.9974 -0.0000
vn 0.0021 1.0000 -0.0000
vn 0.0038 1.0000 -0.0000
vn 0.9079 0.4191 -0.0000
vn 0.0025 1.0000 -0.0000
vn -1.0000 0.0001 -0.0000
vn -0.1736 -0.9848 -0.0000
vn -0.0945 -0.9955 -0.0000
vn 0.0202 0.9998 -0.0000
vn -0.2919 -0.9564 -0.0000
vn -0.0493 -0.9988 -0.0000
vn -0.3743 -0.9273 -0.0000
vt 0.092106 0.754880
vt 0.094340 1.000000
vt 0.127358 1.000000
vt 0.127358 0.769569
vt 0.375000 0.795301
vt 0.375000 1.000000
vt 0.500000 1.000000
vt 0.500000 0.806980
vt 0.250000 1.000000
vt 0.250000 0.784633
vt 0.000000 0.753676
vt 0.000000 1.000000
vt 0.041667 1.000000
vt 0.036046 0.753676
vt 0.018849 0.000000
vt 0.024068 0.228723
vt 0.087346 0.232492
vt 0.085272 0.000000
vt 0.000000 0.000000
vt 0.000000 0.228723
vt 0.029891 0.483909
vt 0.089626 0.482750
vt 0.000000 0.483909
vt 0.127358 0.243798
vt 0.127358 0.000000
vt 0.127358 0.469523
vt 0.375000 0.225791
vt 0.375000 0.433037
vt 0.500000 0.431378
vt 0.500000 0.223857
vt 0.250000 0.445713
vt 0.250000 0.233097
s 1
f 24/1/1 11/2/1 7/3/1 9/4/1
f 22/5/1 4/6/1 6/7/1 10/8/1
f 9/4/1 7/3/1 2/9/1 5/10/1
f 5/10/1 2/9/1 4/6/1 22/5/1
f 25/11/1 3/12/1 12/13/1 23/14/1
f 23/14/1 12/13/1 11/2/1 24/1/1
f 13/15/1 20/16/1 21/17/1 14/18/1
f 1/19/1 15/20/1 20/16/1 13/15/1
f 30/21/1 23/14/1 24/1/1 26/22/1
f 29/23/1 25/11/1 23/14/1 30/21/1
f 14/18/1 21/17/1 17/24/1 8/25/1
f 21/17/1 26/22/1 31/26/1 17/24/1
f 19/27/1 27/28/1 32/29/1 16/30/1
f 17/24/1 31/26/1 28/31/1 18/32/1
f 18/32/1 28/31/1 27/28/1 19/27/1
f 15/20/1 29/23/1 30/21/1 20/16/1
f 20/16/1 30/21/1 26/22/1 21/17/1
f 56/1/2 41/4/2 39/3/2 43/2/2
f 54/5/2 42/8/2 38/7/2 36/6/2
f 41/4/2 37/10/2 34/9/2 39/3/2
f 37/10/2 54/5/2 36/6/2 34/9/2
f 57/11/2 55/14/2 44/13/2 35/12/2
f 55/14/2 56/1/2 43/2/2 44/13/2
f 45/15/2 46/18/2 53/17/2 52/16/2
f 33/19/2 45/15/2 52/16/2 47/20/2
f 62/21/2 58/22/2 56/1/2 55/14/2
f 61/23/2 62/21/2 55/14/2 57/11/2
f 46/18/2 40/25/2 49/24/2 53/17/2
f 53/17/2 49/24/2 63/26/2 58/22/2
f 51/27/2 48/30/2 64/29/2 59/28/2
f 49/24/2 50/32/2 60/31/2 63/26/2
f 50/32/2 51/27/2 59/28/2 60/31/2
f 47/20/2 52/16/2 62/21/2 61/23/2
f 52/16/2 53/17/2 58/22/2 62/21/2
f 7/3/3 11/2/4 43/2/4 39/3/3
f 25/11/5 29/23/5 61/23/5 57/11/5
f 17/24/6 18/32/7 50/32/7 49/24/6
f 11/2/4 12/13/8 44/13/8 43/2/4
f 19/27/9 16/30/10 48/30/10 51/27/9
f 1/19/11 13/15/11 45/15/11 33/19/11
f 15/20/5 1/19/5 33/19/5 47/20/5
f 13/15/11 14/18/11 46/18/11 45/15/11
f 16/30/12 32/29/12 64/29/12 48/30/12
f 2/9/13 7/3/3 39/3/3 34/9/13
f 3/12/14 25/11/5 57/11/5 35/12/14
f 31/26/15 26/22/16 58/22/16 63/26/15
f 4/6/17 2/9/13 34/9/13 36/6/17
f 32/29/18 27/28/19 59/28/19 64/29/18
f 12/13/20 3/12/14 35/12/14 44/13/20
f 29/23/5 15/20/5 47/20/5 61/23/5
f 28/31/21 31/26/15 63/26/15 60/31/21
f 26/22/22 24/1/22 56/1/22 58/22/22
f 5/10/23 22/5/24 54/5/24 37/10/23
f 27/28/19 28/31/21 60/31/21 59/28/19
f 6/7/25 4/6/17 36/6/17 38/7/25
f 9/4/26 5/10/23 37/10/23 41/4/26
f 8/25/12 17/24/12 49/24/12 40/25/12
f 10/8/12 6/7/12 38/7/12 42/8/12
f 22/5/24 10/8/27 42/8/27 54/5/24
f 14/18/11 8/25/11 40/25/11 46/18/11
f 24/1/28 9/4/26 41/4/26 56/1/28
f 18/32/7 19/27/9 51/27/9 50/32/7
f 85/1/1 72/4/1 70/3/1 73/2/1
f 83/5/1 10/8/1 6/7/1 68/6/1
f 72/4/1 69/10/1 66/9/1 70/3/1
f 69/10/1 83/5/1 68/6/1 66/9/1
f 86/11/1 84/14/1 74/13/1 67/12/1
f 84/14/1 85/1/1 73/2/1 74/13/1
f 75/15/1 76/18/1 82/17/1 81/16/1
f 65/19/1 75/15/1 81/16/1 77/20/1
f 91/21/1 87/22/1 85/1/1 84/14/1
f 90/23/1 91/21/1 84/14/1 86/11/1
f 76/18/1 71/25/1 78/24/1 82/17/1
f 82/17/1 78/24/1 92/26/1 87/22/1
f 80/27/1 16/30/1 32/29/1 88/28/1
f 78/24/1 79/32/1 89/31/1 92/26/1
f 79/32/1 80/27/1 88/28/1 89/31/1
f 77/20/1 81/16/1 91/21/1 90/23/1
f 81/16/1 82/17/1 87/22/1 91/21/1
f 113/1/2 101/2/2 98/3/2 100/4/2
f 111/5/2 96/6/2 38/7/2 42/8/2
f 100/4/2 98/3/2 94/9/2 97/10/2
f 97/10/2 94/9/2 96/6/2 111/5/2
f 114/11/2 95/12/2 102/13/2 112/14/2
f 112/14/2 102/13/2 101/2/2 113/1/2
f 103/15/2 109/16/2 110/17/2 104/18/2
f 93/19/2 105/20/2 109/16/2 103/15/2
f 119/21/2 112/14/2 113/1/2 115/22/2
f 118/23/2 114/11/2 112/14/2 119/21/2
f 104/18/2 110/17/2 106/24/2 99/25/2
f 110/17/2 115/22/2 120/26/2 106/24/2
f 108/27/2 116/28/2 64/29/2 48/30/2
f 106/24/2 120/26/2 117/31/2 107/32/2
f 107/32/2 117/31/2 116/28/2 108/27/2
f 105/20/2 118/23/2 119/21/2 109/16/2
f 109/16/2 119/21/2 115/22/2 110/17/2
f 70/3/29 98/3/29 101/2/30 73/2/30
f 86/11/12 114/11/12 118/23/12 90/23/12
f 78/24/31 106/24/31 107/32/32 79/32/32
f 73/2/30 101/2/30 102/13/33 74/13/33
f 80/27/34 108/27/34 48/30/35 16/30/35
f 65/19/11 93/19/11 103/15/11 75/15/11
f 77/20/12 105/20/12 93/19/12 65/19/12
f 75/15/11 103/15/11 104/18/11 76/18/11
f 66/9/36 94/9/36 98/3/29 70/3/29
f 67/12/37 95/12/37 114/11/12 86/11/12
f 92/26/38 120/26/38 115/22/39 87/22/39
f 68/6/40 96/6/40 94/9/36 66/9/36
f 32/29/41 64/29/41 116/28/42 88/28/42
f 74/13/43 102/13/43 95/12/37 67/12/37
f 90/23/12 118/23/12 105/20/12 77/20/12
f 89/31/44 117/31/44 120/26/38 92/26/38
f 87/22/45 115/22/45 113/1/45 85/1/45
f 69/10/46 97/10/46 111/5/47 83/5/47
f 88/28/42 116/28/42 117/31/44 89/31/44
f 6/7/48 38/7/48 96/6/40 68/6/40
f 72/4/49 100/4/49 97/10/46 69/10/46
f 71/25/5 99/25/5 106/24/5 78/24/5
f 83/5/47 111/5/47 42/8/50 10/8/50
f 76/18/11 104/18/11 99/25/11 71/25/11
f 85/1/51 113/1/51 100/4/49 72/4/49
f 79/32/32 107/32/32 108/27/34 80/27/34
