# Blender 5.0.1
# www.blender.org
mtllib profile_03_cladding_112x15.mtl
o profile_03_cladding_112x15
v 0.477852 0.002731 -0.080987
v 0.489253 0.002731 -0.080987
v 0.477852 0.010267 -0.080987
v 0.483719 0.010280 -0.080987
v 0.475899 0.004588 -0.080987
v 0.475899 0.008247 -0.080987
v 0.497270 0.009528 -0.080987
v 0.485061 0.011569 -0.080987
v 0.497257 0.014111 -0.080987
v 0.485086 0.014174 -0.080987
v 0.497257 0.018232 -0.080987
v 0.524619 0.009528 -0.080987
v 0.489508 0.018237 -0.080987
v 0.486027 0.015664 -0.080987
v 0.487660 0.017421 -0.080987
v 0.524605 0.014111 -0.080987
v 0.524605 0.018232 -0.080987
v 0.536624 0.009528 -0.080987
v 0.536610 0.014111 -0.080987
v 0.536610 0.018232 -0.080987
v 0.568832 0.009528 -0.080987
v 0.568818 0.014111 -0.080987
v 0.568818 0.018232 -0.080987
v 0.526380 0.007775 -0.080987
v 0.534975 0.007775 -0.080987
v 0.526380 0.004751 -0.080987
v 0.534975 0.004751 -0.080987
v 0.528559 0.002745 -0.080987
v 0.532797 0.002745 -0.080987
v 0.580837 0.009528 -0.080987
v 0.580824 0.014111 -0.080987
v 0.579086 0.009528 -0.080987
v 0.579072 0.014111 -0.080987
v 0.570430 0.007800 -0.080987
v 0.579118 0.007800 -0.080987
v 0.577994 0.007800 -0.080987
v 0.570430 0.004974 -0.080987
v 0.579118 0.004974 -0.080987
v 0.577994 0.004974 -0.080987
v 0.572802 0.002713 -0.080987
v 0.576881 0.002713 -0.080987
v 0.576257 0.002713 -0.080987
v 0.586278 0.009528 -0.080987
v 0.586264 0.014111 -0.080987
v 0.588021 0.011200 -0.080987
v 0.588007 0.014111 -0.080987
v 0.578115 0.015729 -0.080987
v 0.574864 0.018221 -0.080987
v 0.576536 0.017451 -0.080987
v 0.477852 0.002731 -0.000187
v 0.489253 0.002731 -0.000187
v 0.477852 0.010267 -0.000187
v 0.483719 0.010280 -0.000187
v 0.475899 0.004588 -0.000187
v 0.475899 0.008247 -0.000187
v 0.497270 0.009528 -0.000187
v 0.485061 0.011569 -0.000187
v 0.497257 0.014111 -0.000187
v 0.485086 0.014174 -0.000187
v 0.497257 0.018232 -0.000187
v 0.524619 0.009528 -0.000187
v 0.489508 0.018237 -0.000187
v 0.486027 0.015664 -0.000187
v 0.487660 0.017421 -0.000187
v 0.524605 0.014111 -0.000187
v 0.524605 0.018232 -0.000187
v 0.536624 0.009528 -0.000187
v 0.536610 0.014111 -0.000187
v 0.536610 0.018232 -0.000187
v 0.568832 0.009528 -0.000187
v 0.568818 0.014111 -0.000187
v 0.568818 0.018232 -0.000187
v 0.526380 0.007775 -0.000187
v 0.534975 0.007775 -0.000187
v 0.526380 0.004751 -0.000187
v 0.534975 0.004751 -0.000187
v 0.528559 0.002745 -0.000187
v 0.532797 0.002745 -0.000187
v 0.580837 0.009528 -0.000187
v 0.580824 0.014111 -0.000187
v 0.579086 0.009528 -0.000187
v 0.579072 0.014111 -0.000187
v 0.570430 0.007800 -0.000187
v 0.579118 0.007800 -0.000187
v 0.577994 0.007800 -0.000187
v 0.570430 0.004974 -0.000187
v 0.579118 0.004974 -0.000187
v 0.577994 0.004974 -0.000187
v 0.572802 0.002713 -0.000187
v 0.576881 0.002713 -0.000187
v 0.576257 0.002713 -0.000187
v 0.586278 0.009528 -0.000187
v 0.586264 0.014111 -0.000187
v 0.588021 0.011200 -0.000187
v 0.588007 0.014111 -0.000187
v 0.578115 0.015729 -0.000187
v 0.574864 0.018221 -0.000187
v 0.576536 0.017451 -0.000187
vn -0.0000 -0.0000 -1.0000
vn -0.0000 -0.0000 1.0000
vn -0.0000 -1.0000 -0.0000
vn 1.0000 -0.0000 -0.0000
vn -0.7325 0.6807 -0.0000
vn 0.8606 0.5093 -0.0000
vn -1.0000 -0.0000 -0.0000
vn 0.0007 1.0000 -0.0000
vn 0.0018 1.0000 -0.0000
vn -0.6889 -0.7248 -0.0000
vn -0.0000 1.0000 -0.0000
vn -0.8457 0.5337 -0.0000
vn -0.7188 0.6952 -0.0000
vn -0.6899 -0.7239 -0.0000
vn -0.7052 -0.7090 -0.0000
vn 0.6466 -0.7628 -0.0000
vn 0.7283 -0.6852 -0.0000
vn 0.7109 -0.7033 -0.0000
vn -0.6926 0.7213 -0.0000
vn -0.7339 -0.6792 -0.0000
vn 0.7087 -0.7055 -0.0000
vn -1.0000 0.0097 -0.0000
vn 1.0000 0.0047 -0.0000
vn -0.6774 -0.7356 -0.0000
vn 0.6923 -0.7216 -0.0000
vn 0.6774 -0.7356 -0.0000
vn 0.7372 0.6757 -0.0000
vn -0.4039 0.9148 -0.0000
vn 0.4183 0.9083 -0.0000
vn -0.0023 1.0000 -0.0000
vt 0.000000 0.000000
vt 0.000000 1.000000
vt 1.000000 1.000000
vt 1.000000 0.000000
vt 1.000000 0.000000
s 0
f 1/1/1 3/2/1 4/3/1 2/4/1
f 1/1/1 5/1/1 6/2/1 3/2/1
f 4/3/1 8/3/1 7/4/1 2/4/1
f 8/3/1 10/3/1 9/4/1 7/4/1
f 14/1/1 15/1/1 13/1/1 11/1/1 9/4/1 10/3/1
f 11/1/1 17/1/1 16/4/1 9/4/1
f 9/4/1 16/4/1 12/4/1 7/4/1
f 16/4/1 19/4/1 18/4/1 12/4/1
f 17/1/1 20/1/1 19/4/1 16/4/1
f 19/4/1 22/4/1 21/4/1 18/4/1
f 20/1/1 23/1/1 22/4/1 19/4/1
f 18/4/1 25/4/1 24/4/1 12/4/1
f 25/4/1 27/4/1 26/4/1 24/4/1
f 27/4/1 29/4/1 28/4/1 26/4/1
f 33/5/1 31/4/1 30/4/1 32/4/1
f 22/4/1 33/5/1 32/4/1 21/4/1
f 32/4/1 36/4/1 34/4/1 21/4/1
f 30/4/1 35/4/1 36/4/1 32/4/1
f 36/4/1 39/4/1 37/4/1 34/4/1
f 35/4/1 38/4/1 39/4/1 36/4/1
f 39/4/1 42/4/1 40/4/1 37/4/1
f 38/4/1 41/4/1 42/4/1 39/4/1
f 31/4/1 44/4/1 43/4/1 30/4/1
f 44/4/1 46/4/1 45/4/1 43/4/1
f 23/1/1 48/1/1 49/1/1 47/1/1 33/5/1 22/4/1
f 50/1/2 51/4/2 53/3/2 52/2/2
f 50/1/2 52/2/2 55/2/2 54/1/2
f 53/3/2 51/4/2 56/4/2 57/3/2
f 57/3/2 56/4/2 58/4/2 59/3/2
f 63/1/2 59/3/2 58/4/2 60/1/2 62/1/2 64/1/2
f 60/1/2 58/4/2 65/4/2 66/1/2
f 58/4/2 56/4/2 61/4/2 65/4/2
f 65/4/2 61/4/2 67/4/2 68/4/2
f 66/1/2 65/4/2 68/4/2 69/1/2
f 68/4/2 67/4/2 70/4/2 71/4/2
f 69/1/2 68/4/2 71/4/2 72/1/2
f 67/4/2 61/4/2 73/4/2 74/4/2
f 74/4/2 73/4/2 75/4/2 76/4/2
f 76/4/2 75/4/2 77/4/2 78/4/2
f 82/5/2 81/4/2 79/4/2 80/4/2
f 71/4/2 70/4/2 81/4/2 82/5/2
f 81/4/2 70/4/2 83/4/2 85/4/2
f 79/4/2 81/4/2 85/4/2 84/4/2
f 85/4/2 83/4/2 86/4/2 88/4/2
f 84/4/2 85/4/2 88/4/2 87/4/2
f 88/4/2 86/4/2 89/4/2 91/4/2
f 87/4/2 88/4/2 91/4/2 90/4/2
f 80/4/2 79/4/2 92/4/2 93/4/2
f 93/4/2 92/4/2 94/4/2 95/4/2
f 72/1/2 71/4/2 82/5/2 96/1/2 98/1/2 97/1/2
f 18/4/3 21/4/3 70/4/3 67/4/3
f 38/4/4 35/4/4 84/4/4 87/4/4
f 15/1/5 14/1/5 63/1/5 64/1/5
f 33/5/6 47/1/6 96/1/6 82/5/6
f 6/2/7 5/1/7 54/1/7 55/2/7
f 42/4/3 41/4/3 90/4/3 91/4/3
f 11/1/8 13/1/8 62/1/8 60/1/8
f 48/1/9 23/1/9 72/1/9 97/1/9
f 5/1/10 1/1/10 50/1/10 54/1/10
f 23/1/11 20/1/11 69/1/11 72/1/11
f 40/4/3 42/4/3 91/4/3 89/4/3
f 14/1/12 10/3/12 59/3/12 63/1/12
f 31/4/11 33/5/11 82/5/11 80/4/11
f 3/2/13 6/2/13 55/2/13 52/2/13
f 37/4/14 40/4/14 89/4/14 86/4/14
f 12/4/15 24/4/15 73/4/15 61/4/15
f 17/1/11 11/1/11 60/1/11 66/1/11
f 2/4/16 7/4/16 56/4/16 51/4/16
f 25/4/17 18/4/17 67/4/17 74/4/17
f 41/4/18 38/4/18 87/4/18 90/4/18
f 7/4/3 12/4/3 61/4/3 56/4/3
f 8/3/19 4/3/19 53/3/19 57/3/19
f 21/4/20 34/4/20 83/4/20 70/4/20
f 24/4/7 26/4/7 75/4/7 73/4/7
f 30/4/3 43/4/3 92/4/3 79/4/3
f 27/4/4 25/4/4 74/4/4 76/4/4
f 44/4/11 31/4/11 80/4/11 93/4/11
f 35/4/21 30/4/21 79/4/21 84/4/21
f 10/3/22 8/3/22 57/3/22 59/3/22
f 28/4/3 29/4/3 78/4/3 77/4/3
f 45/4/23 46/4/23 95/4/23 94/4/23
f 26/4/24 28/4/24 77/4/24 75/4/24
f 43/4/25 45/4/25 94/4/25 92/4/25
f 20/1/11 17/1/11 66/1/11 69/1/11
f 29/4/26 27/4/26 76/4/26 78/4/26
f 46/4/11 44/4/11 93/4/11 95/4/11
f 1/1/3 2/4/3 51/4/3 50/1/3
f 34/4/7 37/4/7 86/4/7 83/4/7
f 47/1/27 49/1/27 98/1/27 96/1/27
f 13/1/28 15/1/28 64/1/28 62/1/28
f 49/1/29 48/1/29 97/1/29 98/1/29
f 4/3/30 3/2/30 52/2/30 53/3/30
