# Blender 5.0.1
# www.blender.org
mtllib profile_07_rod_25mm.mtl
o profile_07_rod_25mm
v 1.228155 0.027815 -0.064241
v 1.228155 0.027815 -0.003817
v 1.233273 0.026721 -0.064241
v 1.233273 0.026721 -0.003817
v 1.237506 0.023628 -0.064241
v 1.237506 0.023628 -0.003817
v 1.240122 0.019071 -0.064241
v 1.240122 0.019071 -0.003817
v 1.240669 0.013838 -0.064241
v 1.240669 0.013838 -0.003817
v 1.239052 0.008833 -0.064241
v 1.239052 0.008833 -0.003817
v 1.235551 0.004923 -0.064241
v 1.235551 0.004923 -0.003817
v 1.230771 0.002783 -0.064241
v 1.230771 0.002783 -0.003817
v 1.225539 0.002783 -0.064241
v 1.225539 0.002783 -0.003817
v 1.220759 0.004923 -0.064241
v 1.220759 0.004923 -0.003817
v 1.217258 0.008833 -0.064241
v 1.217258 0.008833 -0.003817
v 1.215641 0.013838 -0.064241
v 1.215641 0.013838 -0.003817
v 1.216188 0.019071 -0.064241
v 1.216188 0.019071 -0.003817
v 1.218804 0.023628 -0.064241
v 1.218804 0.023628 -0.003817
v 1.223037 0.026721 -0.064241
v 1.223037 0.026721 -0.003817
vn -0.0000 1.0000 -0.0000
vn 0.4085 0.9128 -0.0000
vn 0.7449 0.6672 -0.0000
vn 0.9515 0.3076 -0.0000
vn 0.9946 -0.1040 -0.0000
vn 0.8671 -0.4981 -0.0000
vn 0.5898 -0.8076 -0.0000
vn 0.2089 -0.9779 -0.0000
vn -0.2089 -0.9779 -0.0000
vn -0.5898 -0.8076 -0.0000
vn -0.8671 -0.4981 -0.0000
vn -0.9946 -0.1040 -0.0000
vn -0.9515 0.3076 -0.0000
vn -0.7449 0.6672 -0.0000
vn -0.0000 -0.0000 1.0000
vn -0.4085 0.9128 -0.0000
vn -0.0000 -0.0000 -1.0000
vt 1.000000 0.500000
vt 1.000000 1.000000
vt 0.933333 1.000000
vt 0.933333 0.500000
vt 0.866667 1.000000
vt 0.866667 0.500000
vt 0.800000 1.000000
vt 0.800000 0.500000
vt 0.733333 1.000000
vt 0.733333 0.500000
vt 0.666667 1.000000
vt 0.666667 0.500000
vt 0.600000 1.000000
vt 0.600000 0.500000
vt 0.533333 1.000000
vt 0.533333 0.500000
vt 0.466667 1.000000
vt 0.466667 0.500000
vt 0.400000 1.000000
vt 0.400000 0.500000
vt 0.333333 1.000000
vt 0.333333 0.500000
vt 0.266667 1.000000
vt 0.266667 0.500000
vt 0.200000 1.000000
vt 0.200000 0.500000
vt 0.133333 1.000000
vt 0.133333 0.500000
vt 0.347617 0.469251
vt 0.250000 0.490000
vt 0.152383 0.469251
vt 0.071645 0.410591
vt 0.021746 0.324164
vt 0.011315 0.224913
vt 0.042154 0.130000
vt 0.108932 0.055836
vt 0.200101 0.015245
vt 0.299899 0.015245
vt 0.391068 0.055836
vt 0.457846 0.130000
vt 0.488685 0.224913
vt 0.478254 0.324164
vt 0.428355 0.410591
vt 0.066667 1.000000
vt 0.066667 0.500000
vt 0.000000 1.000000
vt 0.000000 0.500000
vt 0.750000 0.490000
vt 0.847617 0.469251
vt 0.928355 0.410591
vt 0.978254 0.324164
vt 0.988685 0.224913
vt 0.957846 0.130000
vt 0.891068 0.055836
vt 0.799899 0.015245
vt 0.700101 0.015245
vt 0.608932 0.055836
vt 0.542154 0.130000
vt 0.511315 0.224913
vt 0.521746 0.324164
vt 0.571645 0.410591
vt 0.652383 0.469251
s 1
f 1/1/1 2/2/1 4/3/2 3/4/2
f 3/4/2 4/3/2 6/5/3 5/6/3
f 5/6/3 6/5/3 8/7/4 7/8/4
f 7/8/4 8/7/4 10/9/5 9/10/5
f 9/10/5 10/9/5 12/11/6 11/12/6
f 11/12/6 12/11/6 14/13/7 13/14/7
f 13/14/7 14/13/7 16/15/8 15/16/8
f 15/16/8 16/15/8 18/17/9 17/18/9
f 17/18/9 18/17/9 20/19/10 19/20/10
f 19/20/10 20/19/10 22/21/11 21/22/11
f 21/22/11 22/21/11 24/23/12 23/24/12
f 23/24/12 24/23/12 26/25/13 25/26/13
f 25/26/13 26/25/13 28/27/14 27/28/14
f 4/29/15 2/30/15 30/31/15 28/32/15 26/33/15 24/34/15 22/35/15 20/36/15 18/37/15 16/38/15 14/39/15 12/40/15 10/41/15 8/42/15 6/43/15
f 27/28/14 28/27/14 30/44/16 29/45/16
f 29/45/16 30/44/16 2/46/1 1/47/1
f 1/48/17 3/49/17 5/50/17 7/51/17 9/52/17 11/53/17 13/54/17 15/55/17 17/56/17 19/57/17 21/58/17 23/59/17 25/60/17 27/61/17 29/62/17
