# Blender 5.0.1
# www.blender.org
mtllib profile_44_I-beam_34x8.mtl
o profile_44_I-beam_34x8
v 0.401629 0.007432 -0.727329
v 0.439629 0.007432 -0.727329
v 0.401629 0.015432 -0.727329
v 0.439629 0.015432 -0.727329
v 0.409799 0.007432 -0.727329
v 0.431459 0.007432 -0.727329
v 0.431459 0.015432 -0.727329
v 0.409799 0.015432 -0.727329
v 0.401629 0.006511 -0.727329
v 0.439629 0.006511 -0.727329
v 0.401629 0.016354 -0.727329
v 0.439629 0.016354 -0.727329
v 0.409799 0.006511 -0.727329
v 0.431459 0.006511 -0.727329
v 0.431459 0.016354 -0.727329
v 0.409799 0.016354 -0.727329
v 0.401629 0.015432 -0.677329
v 0.401629 0.007432 -0.677329
v 0.431459 0.007432 -0.677329
v 0.439629 0.007432 -0.677329
v 0.439629 0.015432 -0.677329
v 0.409799 0.015432 -0.677329
v 0.409799 0.007432 -0.677329
v 0.431459 0.015432 -0.677329
v 0.431459 0.006511 -0.677329
v 0.439629 0.006511 -0.677329
v 0.409799 0.016354 -0.677329
v 0.401629 0.016354 -0.677329
v 0.401629 0.006511 -0.677329
v 0.409799 0.006511 -0.677329
v 0.439629 0.016354 -0.677329
v 0.431459 0.016354 -0.677329
vn -0.0000 -0.0000 -1.0000
vn -0.0000 -0.0000 1.0000
vn 1.0000 -0.0000 -0.0000
vn -1.0000 -0.0000 -0.0000
vn -0.0000 -1.0000 -0.0000
vn -0.0000 1.0000 -0.0000
vt 0.666667 0.000000
vt 0.666667 1.000000
vt 1.000000 1.000000
vt 1.000000 0.000000
vt 0.000000 0.000000
vt 0.000000 1.000000
vt 0.333333 1.000000
vt 0.333333 0.000000
s 0
f 6/1/1 7/2/1 4/3/1 2/4/1
f 1/5/1 3/6/1 8/7/1 5/8/1
f 5/8/1 8/7/1 7/2/1 6/1/1
f 7/2/1 15/2/1 12/3/1 4/3/1
f 5/8/1 13/8/1 9/5/1 1/5/1
f 3/6/1 11/6/1 16/7/1 8/7/1
f 2/4/1 10/4/1 14/1/1 6/1/1
f 19/1/2 20/4/2 21/3/2 24/2/2
f 18/5/2 23/8/2 22/7/2 17/6/2
f 23/8/2 19/1/2 24/2/2 22/7/2
f 24/2/2 21/3/2 31/3/2 32/2/2
f 23/8/2 18/5/2 29/5/2 30/8/2
f 17/6/2 22/7/2 27/7/2 28/6/2
f 20/4/2 19/1/2 25/1/2 26/4/2
f 13/8/3 5/8/3 23/8/3 30/8/3
f 2/4/3 4/3/3 21/3/3 20/4/3
f 1/5/4 9/5/4 29/5/4 18/5/4
f 14/1/5 10/4/5 26/4/5 25/1/5
f 11/6/4 3/6/4 17/6/4 28/6/4
f 16/7/6 11/6/6 28/6/6 27/7/6
f 8/7/3 16/7/3 27/7/3 22/7/3
f 9/5/5 13/8/5 30/8/5 29/5/5
f 5/8/5 6/1/5 19/1/5 23/8/5
f 10/4/3 2/4/3 20/4/3 26/4/3
f 12/3/6 15/2/6 32/2/6 31/3/6
f 6/1/4 14/1/4 25/1/4 19/1/4
f 15/2/4 7/2/4 24/2/4 32/2/4
f 7/2/6 8/7/6 22/7/6 24/2/6
f 3/6/4 1/5/4 18/5/4 17/6/4
f 4/3/3 12/3/3 31/3/3 21/3/3
