# Blender 5.0.1
# www.blender.org
mtllib profile_42_C-channel_100x30x6.mtl
o profile_42_C-channel_100x30x6
v 0.005367 0.001863 -0.758969
v 0.105367 0.001863 -0.758969
v 0.005367 0.031863 -0.758969
v 0.105367 0.031863 -0.758969
v 0.011367 0.001863 -0.758969
v 0.099367 0.001863 -0.758969
v 0.099367 0.031863 -0.758969
v 0.011367 0.031863 -0.758969
v 0.005367 0.007863 -0.758969
v 0.105367 0.007863 -0.758969
v 0.011367 0.007863 -0.758969
v 0.099367 0.007863 -0.758969
v 0.005367 0.007863 -0.658969
v 0.005367 0.001863 -0.658969
v 0.099367 0.001863 -0.658969
v 0.105367 0.001863 -0.658969
v 0.105367 0.007863 -0.658969
v 0.105367 0.031863 -0.658969
v 0.011367 0.031863 -0.658969
v 0.005367 0.031863 -0.658969
v 0.011367 0.001863 -0.658969
v 0.099367 0.031863 -0.658969
v 0.011367 0.007863 -0.658969
v 0.099367 0.007863 -0.658969
vn -0.0000 -0.0000 -1.0000
vn -0.0000 -0.0000 1.0000
vn -1.0000 -0.0000 -0.0000
vn -0.0000 1.0000 -0.0000
vn -0.0000 -1.0000 -0.0000
vn 1.0000 -0.0000 -0.0000
vt 0.666667 0.380952
vt 0.666667 1.000000
vt 1.000000 1.000000
vt 1.000000 0.380952
vt 0.000000 0.380952
vt 0.000000 1.000000
vt 0.333333 1.000000
vt 0.333333 0.380952
vt 0.333333 0.000000
vt 0.666667 0.000000
vt 0.000000 0.000000
vt 1.000000 0.000000
s 0
f 12/1/1 7/2/1 4/3/1 10/4/1
f 9/5/1 3/6/1 8/7/1 11/8/1
f 24/1/2 17/4/2 18/3/2 22/2/2
f 5/9/1 11/8/1 12/1/1 6/10/1
f 1/11/1 9/5/1 11/8/1 5/9/1
f 6/10/1 12/1/1 10/4/1 2/12/1
f 13/5/2 23/8/2 19/7/2 20/6/2
f 21/9/2 15/10/2 24/1/2 23/8/2
f 14/11/2 21/9/2 23/8/2 13/5/2
f 15/10/2 16/12/2 17/4/2 24/1/2
f 9/5/3 1/11/3 14/11/3 13/5/3
f 12/1/4 11/8/4 23/8/4 24/1/4
f 1/11/5 5/9/5 21/9/5 14/11/5
f 2/12/6 10/4/6 17/4/6 16/12/6
f 6/10/5 2/12/5 16/12/5 15/10/5
f 11/8/6 8/7/6 19/7/6 23/8/6
f 5/9/5 6/10/5 15/10/5 21/9/5
f 10/4/6 4/3/6 18/3/6 17/4/6
f 7/2/3 12/1/3 24/1/3 22/2/3
f 4/3/4 7/2/4 22/2/4 18/3/4
f 8/7/4 3/6/4 20/6/4 19/7/4
f 3/6/3 9/5/3 13/5/3 20/6/3
