# Blender 5.0.1
# www.blender.org
mtllib profile_55_round_pipe_150x10.mtl
o profile_55_round_pipe_150x10
v 2.062746 0.053624 -0.664571
v 1.961579 -0.047544 -0.661923
v 2.062746 -0.037845 -0.664571
v 1.961579 0.063322 -0.661923
v 1.971278 0.053624 -0.664571
v 2.072445 -0.047544 -0.661923
v 1.971278 -0.037845 -0.664571
v 2.072445 0.063322 -0.661923
v 1.961579 0.063322 -0.763268
v 1.971278 0.053624 -0.760620
v 2.062746 0.053624 -0.760620
v 2.072445 0.063322 -0.763268
v 1.961579 -0.047544 -0.763268
v 1.971278 -0.037845 -0.760620
v 2.062746 -0.037845 -0.760620
v 2.072445 -0.047544 -0.763268
v 1.945962 -0.022382 -0.661915
v 1.940774 0.007889 -0.661911
v 1.945962 0.038160 -0.661915
v 2.041942 -0.050837 -0.664545
v 2.017012 -0.055150 -0.664529
v 1.992082 -0.050837 -0.664545
v 1.986741 0.078939 -0.661915
v 2.017012 0.084127 -0.661911
v 2.047283 0.078939 -0.661915
v 1.958286 -0.017041 -0.664545
v 1.953972 0.007889 -0.664529
v 1.958286 0.032820 -0.664545
v 2.075738 0.032820 -0.664545
v 2.080052 0.007889 -0.664529
v 2.075738 -0.017041 -0.664545
v 2.088062 0.038160 -0.661915
v 2.093250 0.007889 -0.661911
v 2.088062 -0.022382 -0.661915
v 1.992082 0.066615 -0.664545
v 2.017012 0.070929 -0.664529
v 2.041942 0.066615 -0.664545
v 2.047283 -0.063161 -0.661915
v 2.017012 -0.068349 -0.661911
v 1.986741 -0.063161 -0.661915
v 1.945962 -0.022382 -0.763275
v 1.940774 0.007889 -0.763280
v 1.945962 0.038160 -0.763275
v 2.041942 -0.050837 -0.760646
v 2.017012 -0.055150 -0.760662
v 1.992082 -0.050837 -0.760646
v 1.986741 0.078939 -0.763275
v 2.017012 0.084127 -0.763280
v 2.047283 0.078939 -0.763275
v 1.958286 -0.017041 -0.760646
v 1.953972 0.007889 -0.760662
v 1.958286 0.032820 -0.760646
v 2.075738 0.032820 -0.760646
v 2.080052 0.007889 -0.760662
v 2.075738 -0.017041 -0.760646
v 2.088062 0.038160 -0.763275
v 2.093250 0.007889 -0.763280
v 2.088062 -0.022382 -0.763275
v 1.992082 0.066615 -0.760646
v 2.017012 0.070929 -0.760662
v 2.041942 0.066615 -0.760646
v 2.047283 -0.063161 -0.763275
v 2.017012 -0.068349 -0.763280
v 1.986741 -0.063161 -0.763275
vn -0.3547 -0.9350 -0.0000
vn -0.0000 -1.0000 -0.0000
vn 0.3547 -0.9350 -0.0000
vn -0.7071 -0.7071 -0.0000
vn 0.7071 -0.7071 -0.0000
vn 0.3566 -0.9342 -0.0000
vn -0.3566 -0.9342 -0.0000
vn -0.9342 -0.3566 -0.0000
vn -1.0000 -0.0000 -0.0000
vn -0.9342 0.3566 -0.0000
vn -0.7071 0.7071 -0.0000
vn 0.3547 0.9350 -0.0000
vn -0.0000 1.0000 -0.0000
vn -0.3547 0.9350 -0.0000
vn 0.7071 0.7071 -0.0000
vn 0.9350 -0.3547 -0.0000
vn 1.0000 -0.0000 -0.0000
vn 0.9350 0.3547 -0.0000
vn 0.9342 0.3566 -0.0000
vn -0.0669 0.1805 -0.9813
vn -0.1339 0.1339 -0.9819
vn -0.0688 0.1796 -0.9813
vn 0.9342 -0.3566 -0.0000
vn 0.1339 0.1339 -0.9819
vn 0.0669 0.1805 -0.9813
vn 0.0688 0.1796 -0.9813
vn -0.0000 0.1947 -0.9809
vn 0.1947 -0.0000 -0.9809
vn 0.1805 0.0669 -0.9813
vn 0.1796 0.0688 -0.9813
vn 0.1796 -0.0688 -0.9813
vn 0.1805 -0.0669 -0.9813
vn 0.0688 -0.1796 -0.9813
vn 0.0669 -0.1805 -0.9813
vn 0.1339 -0.1339 -0.9819
vn -0.0000 -0.1947 -0.9809
vn -0.3566 0.9342 -0.0000
vn -0.1805 -0.0669 -0.9813
vn -0.1339 -0.1339 -0.9819
vn -0.1796 -0.0688 -0.9813
vn 0.3566 0.9342 -0.0000
vn -0.1805 0.0669 -0.9813
vn -0.1796 0.0688 -0.9813
vn -0.1947 -0.0000 -0.9809
vn -0.0000 0.1947 0.9809
vn -0.0688 0.1796 0.9813
vn -0.0669 0.1805 0.9813
vn -0.0669 -0.1805 -0.9813
vn -0.0688 -0.1796 -0.9813
vn 0.0669 0.1805 0.9813
vn 0.0688 0.1796 0.9813
vn -0.1339 0.1339 0.9819
vn 0.1796 0.0688 0.9813
vn 0.1339 0.1339 0.9819
vn 0.1805 0.0669 0.9813
vn 0.1947 -0.0000 0.9809
vn -0.9350 0.3547 -0.0000
vn 0.0688 -0.1796 0.9813
vn 0.1339 -0.1339 0.9819
vn 0.0669 -0.1805 0.9813
vn -0.9350 -0.3547 -0.0000
vn -0.1339 -0.1339 0.9819
vn -0.0688 -0.1796 0.9813
vn -0.0669 -0.1805 0.9813
vn -0.0000 -0.1947 0.9809
vn -0.1947 -0.0000 0.9809
vn -0.1796 -0.0688 0.9813
vn -0.1805 -0.0669 0.9813
vn 0.1796 -0.0688 0.9813
vn 0.1805 -0.0669 0.9813
vn -0.1805 0.0669 0.9813
vn -0.1796 0.0688 0.9813
vt 0.000000 0.000000
s 1
f 40/1/1 64/1/1 63/1/2 39/1/2
f 39/1/2 63/1/2 62/1/3 38/1/3
f 13/1/4 64/1/1 40/1/1 2/1/4
f 62/1/3 16/1/5 6/1/5 38/1/3
f 35/1/6 59/1/6 60/1/2 36/1/2
f 36/1/2 60/1/2 61/1/7 37/1/7
f 10/1/5 59/1/6 35/1/6 5/1/5
f 61/1/7 11/1/4 1/1/4 37/1/7
f 29/1/8 53/1/8 54/1/9 30/1/9
f 30/1/9 54/1/9 55/1/10 31/1/10
f 1/1/4 11/1/4 53/1/8 29/1/8
f 55/1/10 15/1/11 3/1/11 31/1/10
f 25/1/12 49/1/12 48/1/13 24/1/13
f 24/1/13 48/1/13 47/1/14 23/1/14
f 12/1/15 49/1/12 25/1/12 8/1/15
f 47/1/14 9/1/11 4/1/11 23/1/14
f 34/1/16 58/1/16 57/1/17 33/1/17
f 33/1/17 57/1/17 56/1/18 32/1/18
f 6/1/5 16/1/5 58/1/16 34/1/16
f 56/1/18 12/1/15 8/1/15 32/1/18
f 26/1/19 50/1/19 51/1/17 27/1/17
f 44/1/20 15/1/21 16/1/21 62/1/22
f 27/1/17 51/1/17 52/1/23 28/1/23
f 14/1/24 46/1/25 64/1/26 13/1/24
f 45/1/27 44/1/20 62/1/22 63/1/27
f 14/1/15 50/1/19 26/1/19 7/1/15
f 42/1/28 51/1/28 50/1/29 41/1/30
f 46/1/25 45/1/27 63/1/27 64/1/26
f 43/1/31 52/1/32 51/1/28 42/1/28
f 41/1/30 50/1/29 14/1/24 13/1/24
f 52/1/23 10/1/5 5/1/5 28/1/23
f 47/1/33 59/1/34 10/1/35 9/1/35
f 48/1/36 60/1/36 59/1/34 47/1/33
f 20/1/37 44/1/37 45/1/13 21/1/13
f 53/1/38 11/1/39 12/1/39 56/1/40
f 21/1/13 45/1/13 46/1/41 22/1/41
f 15/1/21 55/1/42 58/1/43 16/1/21
f 54/1/44 53/1/38 56/1/40 57/1/44
f 3/1/11 15/1/11 44/1/37 20/1/37
f 21/1/45 39/1/45 38/1/46 20/1/47
f 12/1/39 11/1/39 61/1/48 49/1/49
f 55/1/42 54/1/44 57/1/44 58/1/43
f 22/1/50 40/1/51 39/1/45 21/1/45
f 20/1/47 38/1/46 6/1/52 3/1/52
f 46/1/41 14/1/15 7/1/15 22/1/41
f 17/1/53 2/1/54 7/1/54 26/1/55
f 49/1/49 61/1/48 60/1/36 48/1/36
f 9/1/35 10/1/35 52/1/32 43/1/31
f 18/1/56 17/1/53 26/1/55 27/1/56
f 19/1/57 43/1/57 42/1/9 18/1/9
f 23/1/58 4/1/59 5/1/59 35/1/60
f 18/1/9 42/1/9 41/1/61 17/1/61
f 8/1/62 25/1/63 37/1/64 1/1/62
f 24/1/65 23/1/58 35/1/60 36/1/65
f 4/1/11 9/1/11 43/1/57 19/1/57
f 30/1/66 33/1/66 32/1/67 29/1/68
f 4/1/59 19/1/69 28/1/70 5/1/59
f 25/1/63 24/1/65 36/1/65 37/1/64
f 31/1/71 34/1/72 33/1/66 30/1/66
f 29/1/68 32/1/67 8/1/62 1/1/62
f 41/1/61 13/1/4 2/1/4 17/1/61
f 3/1/52 6/1/52 34/1/72 31/1/71
f 19/1/69 18/1/56 27/1/56 28/1/70
f 7/1/54 2/1/54 40/1/51 22/1/50
