# Blender 5.0.1
# www.blender.org
mtllib profile_37_L-angle_30x30.mtl
o profile_37_L-angle_30x30
v 2.001730 0.009129 -0.515541
v 2.031730 0.009129 -0.515541
v 2.001730 0.039129 -0.515541
v 2.005780 0.039129 -0.515541
v 2.005780 0.013179 -0.515541
v 2.031730 0.013179 -0.515541
v 2.001730 0.009129 -0.445541
v 2.031730 0.009129 -0.445541
v 2.001730 0.039129 -0.445541
v 2.005780 0.039129 -0.445541
v 2.005780 0.013179 -0.445541
v 2.031730 0.013179 -0.445541
vn -0.0000 -0.0000 -1.0000
vn -0.0000 -0.0000 1.0000
vn -0.0000 1.0000 -0.0000
vn 1.0000 -0.0000 -0.0000
vn -1.0000 -0.0000 -0.0000
vn -0.0000 -1.0000 -0.0000
vt 0.000000 0.000000
s 0
f 1/1/1 3/1/1 4/1/1 5/1/1
f 2/1/1 1/1/1 5/1/1 6/1/1
f 7/1/2 11/1/2 10/1/2 9/1/2
f 8/1/2 12/1/2 11/1/2 7/1/2
f 6/1/3 5/1/3 11/1/3 12/1/3
f 5/1/4 4/1/4 10/1/4 11/1/4
f 3/1/5 1/1/5 7/1/5 9/1/5
f 2/1/4 6/1/4 12/1/4 8/1/4
f 4/1/3 3/1/3 9/1/3 10/1/3
f 1/1/6 2/1/6 8/1/6 7/1/6
