<svg xmlns="http://www.w3.org/2000/svg" viewBox="0 0 195 163" fill="none">
  <!-- Strip — Cross-Section -->
  <g>
    <path d="M 42.0,90.0 L 140.0,90.0 L 140.0,89.0 L 140.0,40.0 L 138.0,40.0 L 40.0,40.0 L 40.0,41.0 L 40.0,90.0 L 42.0,90.0 Z" fill="rgba(196,129,58,0.15)" stroke="#E8833A" stroke-width="1.8"/>
    <line x1="40.0" y1="92.0" x2="40.0" y2="111.0" stroke="rgba(255,255,255,0.2)" stroke-width="0.5"/>
<line x1="140.0" y1="92.0" x2="140.0" y2="111.0" stroke="rgba(255,255,255,0.2)" stroke-width="0.5"/>
<line x1="40.0" y1="108.0" x2="77.2" y2="108.0" stroke="rgba(255,255,255,0.3)" stroke-width="0.6"/>
<line x1="102.8" y1="108.0" x2="140.0" y2="108.0" stroke="rgba(255,255,255,0.3)" stroke-width="0.6"/>
<polygon points="40.0,108.0 45.0,106.5 45.0,109.5" fill="rgba(255,255,255,0.4)"/>
<polygon points="140.0,108.0 135.0,106.5 135.0,109.5" fill="rgba(255,255,255,0.4)"/>
<text x="90.0" y="121.0" text-anchor="middle" font-family="-apple-system, sans-serif" font-size="10" font-weight="500" fill="rgba(255,255,255,0.7)">50</text>
    <line x1="19.0" y1="40.0" x2="38.0" y2="40.0" stroke="rgba(255,255,255,0.2)" stroke-width="0.5"/>
<line x1="19.0" y1="90.0" x2="38.0" y2="90.0" stroke="rgba(255,255,255,0.2)" stroke-width="0.5"/>
<line x1="22.0" y1="40.0" x2="22.0" y2="59.0" stroke="rgba(255,255,255,0.3)" stroke-width="0.6"/>
<line x1="22.0" y1="71.0" x2="22.0" y2="90.0" stroke="rgba(255,255,255,0.3)" stroke-width="0.6"/>
<polygon points="22.0,40.0 20.5,45.0 23.5,45.0" fill="rgba(255,255,255,0.4)"/>
<polygon points="22.0,90.0 20.5,85.0 23.5,85.0" fill="rgba(255,255,255,0.4)"/>
<text x="22.0" y="68.3" text-anchor="middle" font-family="-apple-system, sans-serif" font-size="10" font-weight="500" fill="rgba(255,255,255,0.7)">25</text>
    <line x1="90.0" y1="28.0" x2="90.0" y2="102.0" stroke="rgba(255,255,255,0.05)" stroke-width="0.5" stroke-dasharray="8,5"/>
<line x1="28.0" y1="65.0" x2="152.0" y2="65.0" stroke="rgba(255,255,255,0.05)" stroke-width="0.5" stroke-dasharray="8,5"/>
  </g>
  <text x="90.0" y="151" text-anchor="middle" font-family="-apple-system, sans-serif" font-size="9" fill="rgba(255,255,255,0.25)" letter-spacing="0.04em">All dimensions in mm</text>
</svg>