<svg xmlns="http://www.w3.org/2000/svg" viewBox="0 0 400 136" fill="none">
  <!-- Sheet Profile — Cross-Section -->
  <g>
    <path d="M 51.0,61.0 L 345.0,61.0 L 345.0,60.7 L 345.0,45.0 L 339.0,45.0 L 45.0,45.0 L 45.0,45.3 L 45.0,61.0 L 51.0,61.0 Z" fill="rgba(196,129,58,0.15)" stroke="#E8833A" stroke-width="1.8"/>
    <line x1="45.0" y1="63.0" x2="45.0" y2="84.0" stroke="rgba(255,255,255,0.2)" stroke-width="0.5"/>
<line x1="345.0" y1="63.0" x2="345.0" y2="84.0" stroke="rgba(255,255,255,0.2)" stroke-width="0.5"/>
<line x1="45.0" y1="81.0" x2="179.0" y2="81.0" stroke="rgba(255,255,255,0.3)" stroke-width="0.6"/>
<line x1="211.0" y1="81.0" x2="345.0" y2="81.0" stroke="rgba(255,255,255,0.3)" stroke-width="0.6"/>
<polygon points="45.0,81.0 50.0,79.5 50.0,82.5" fill="rgba(255,255,255,0.4)"/>
<polygon points="345.0,81.0 340.0,79.5 340.0,82.5" fill="rgba(255,255,255,0.4)"/>
<text x="195.0" y="94.0" text-anchor="middle" font-family="-apple-system, sans-serif" font-size="10" font-weight="500" fill="rgba(255,255,255,0.6)">150</text>
    <line x1="22.0" y1="45.0" x2="43.0" y2="45.0" stroke="rgba(255,255,255,0.2)" stroke-width="0.5"/>
<line x1="22.0" y1="61.0" x2="43.0" y2="61.0" stroke="rgba(255,255,255,0.2)" stroke-width="0.5"/>
<line x1="25.0" y1="45.0" x2="25.0" y2="61.0" stroke="rgba(255,255,255,0.3)" stroke-width="0.6"/>
<polygon points="25.0,45.0 23.5,41.0 26.5,41.0" fill="rgba(255,255,255,0.4)"/>
<polygon points="25.0,61.0 23.5,65.0 26.5,65.0" fill="rgba(255,255,255,0.4)"/>
<text x="25.0" y="75.0" text-anchor="middle" font-family="-apple-system, sans-serif" font-size="10" font-weight="500" fill="rgba(255,255,255,0.6)">8</text>
    <line x1="195.0" y1="33.0" x2="195.0" y2="73.0" stroke="rgba(255,255,255,0.05)" stroke-width="0.5" stroke-dasharray="8,5"/>
<line x1="33.0" y1="53.0" x2="357.0" y2="53.0" stroke="rgba(255,255,255,0.05)" stroke-width="0.5" stroke-dasharray="8,5"/>
  </g>
  <text x="195.0" y="124" text-anchor="middle" font-family="-apple-system, sans-serif" font-size="9" fill="rgba(255,255,255,0.25)" letter-spacing="0.04em">All dimensions in mm</text>
</svg>