<svg xmlns="http://www.w3.org/2000/svg" viewBox="0 -10 260 286" fill="none">
  <!-- Square Box Profile — Cross-Section -->
  <g>
    <path d="m204 30.19-0.43-1.69h-172.9l-2.14 0.86-0.57 1.35v169.4l2.43 2.85 1 0.28h170.6l1.82-1.81v-171.5l0.14 0.28zm-82.88 11.02 0.28-1.22h69.78l0.93 1.95v66.84l-1.22 1.35h-11.16l-58.89-58.59v-10.33h0.28zm-81.84 0.58 0.93-1.24h68.78l0.7 0.66v9.6l-58.88 59.32h-10.46l-1.49-1.49v-65.92l0.42-0.93zm69.85 149.4-0.86 0.57h-67.64l-1.35-1.74v-67.31l0.93-0.94h12.02l56.9 57.31v12.11zm6.28-22.25h-0.66l-52.78-53.55 53.44-54.17 53.72 54.17-53.72 53.55zm75.77 21.36-1.15 1.31h-67.76l-1.01-0.8v-12.43l57.91-56.61h11.44l0.57 1.15v67.38z" fill="rgba(196,129,58,0.15)" stroke="#E8833A" stroke-width="1.8" stroke-linejoin="round"/>
    <line x1="28" y1="26" x2="28" y2="7" stroke="rgba(255,255,255,0.2)" stroke-width="0.5"/>
    <line x1="204" y1="26" x2="204" y2="7" stroke="rgba(255,255,255,0.2)" stroke-width="0.5"/>
    <line x1="28" y1="10" x2="96.0" y2="10" stroke="rgba(255,255,255,0.3)" stroke-width="0.6"/>
    <line x1="136.0" y1="10" x2="204" y2="10" stroke="rgba(255,255,255,0.3)" stroke-width="0.6"/>
    <polygon points="28,10 33,8.5 33,11.5" fill="rgba(255,255,255,0.4)"/>
    <polygon points="204,10 199,8.5 199,11.5" fill="rgba(255,255,255,0.4)"/>
    <text x="116.0" y="5" text-anchor="middle" font-family="-apple-system, sans-serif" font-size="10" font-weight="500" fill="rgba(255,255,255,0.6)">150</text>
    <line x1="7" y1="28" x2="26" y2="28" stroke="rgba(255,255,255,0.2)" stroke-width="0.5"/>
    <line x1="7" y1="203" x2="26" y2="203" stroke="rgba(255,255,255,0.2)" stroke-width="0.5"/>
    <line x1="10" y1="28" x2="10" y2="109.5" stroke="rgba(255,255,255,0.3)" stroke-width="0.6"/>
    <line x1="10" y1="121.5" x2="10" y2="203" stroke="rgba(255,255,255,0.3)" stroke-width="0.6"/>
    <polygon points="10,28 8.5,33 11.5,33" fill="rgba(255,255,255,0.4)"/>
    <polygon points="10,203 8.5,198 11.5,198" fill="rgba(255,255,255,0.4)"/>
    <text x="10" y="118.83333333333333" text-anchor="middle" font-family="-apple-system, sans-serif" font-size="10" font-weight="500" fill="rgba(255,255,255,0.6)">150</text>
    <line x1="110.0" y1="205" x2="110.0" y2="224" stroke="rgba(255,255,255,0.2)" stroke-width="0.5"/>
    <line x1="122.0" y1="205" x2="122.0" y2="224" stroke="rgba(255,255,255,0.2)" stroke-width="0.5"/>
    <line x1="110.0" y1="221" x2="106.0" y2="221" stroke="rgba(255,255,255,0.3)" stroke-width="0.6"/>
    <line x1="126.0" y1="221" x2="122.0" y2="221" stroke="rgba(255,255,255,0.3)" stroke-width="0.6"/>
    <polygon points="110.0,221 114.0,219.5 114.0,222.5" fill="rgba(255,255,255,0.4)"/>
    <polygon points="122.0,221 118.0,219.5 118.0,222.5" fill="rgba(255,255,255,0.4)"/>
    <text x="116.0" y="234" text-anchor="middle" font-family="-apple-system, sans-serif" font-size="10" font-weight="500" fill="rgba(255,255,255,0.6)">10</text>
    <line x1="116.0" y1="6" x2="116.0" y2="211" stroke="rgba(255,255,255,0.05)" stroke-width="0.5" stroke-dasharray="8,5"/>
    <line x1="6" y1="115.5" x2="212" y2="115.5" stroke="rgba(255,255,255,0.05)" stroke-width="0.5" stroke-dasharray="8,5"/>
  </g>
  <text x="204.0" y="264" text-anchor="middle" font-family="-apple-system, sans-serif" font-size="9" fill="rgba(255,255,255,0.25)" letter-spacing="0.04em">All dimensions in mm</text>
</svg>