<svg xmlns="http://www.w3.org/2000/svg" viewBox="0 0 176 136" fill="none">
  <!-- I-Beam Profile — Cross-Section -->
  <g>
    <path d="M 121.0,59.5 L 121.0,59.2 L 121.0,46.5 L 121.0,46.5 L 121.0,45.0 L 120.7,45.0 L 104.7,45.0 L 104.7,45.0 L 104.7,46.5 L 103.8,46.5 L 61.3,46.5 L 61.3,46.5 L 61.3,45.0 L 61.0,45.0 L 45.0,45.0 L 45.0,45.0 L 45.0,46.5 L 45.0,46.8 L 45.0,59.5 L 45.0,59.5 L 45.0,61.0 L 45.3,61.0 L 61.3,61.0 L 61.3,61.0 L 61.3,59.5 L 62.2,59.5 L 104.7,59.5 L 104.7,59.5 L 104.7,61.0 L 105.0,61.0 L 121.0,61.0 L 121.0,61.0 L 121.0,59.5 Z" fill="rgba(196,129,58,0.15)" stroke="#E8833A" stroke-width="1.8"/>
    <line x1="45.0" y1="63.0" x2="45.0" y2="84.0" stroke="rgba(255,255,255,0.2)" stroke-width="0.5"/>
<line x1="121.0" y1="63.0" x2="121.0" y2="84.0" stroke="rgba(255,255,255,0.2)" stroke-width="0.5"/>
<line x1="45.0" y1="81.0" x2="70.2" y2="81.0" stroke="rgba(255,255,255,0.3)" stroke-width="0.6"/>
<line x1="95.8" y1="81.0" x2="121.0" y2="81.0" stroke="rgba(255,255,255,0.3)" stroke-width="0.6"/>
<polygon points="45.0,81.0 50.0,79.5 50.0,82.5" fill="rgba(255,255,255,0.4)"/>
<polygon points="121.0,81.0 116.0,79.5 116.0,82.5" fill="rgba(255,255,255,0.4)"/>
<text x="83.0" y="94.0" text-anchor="middle" font-family="-apple-system, sans-serif" font-size="10" font-weight="500" fill="rgba(255,255,255,0.6)">38</text>
    <line x1="22.0" y1="45.0" x2="43.0" y2="45.0" stroke="rgba(255,255,255,0.2)" stroke-width="0.5"/>
<line x1="22.0" y1="61.0" x2="43.0" y2="61.0" stroke="rgba(255,255,255,0.2)" stroke-width="0.5"/>
<line x1="25.0" y1="45.0" x2="25.0" y2="61.0" stroke="rgba(255,255,255,0.3)" stroke-width="0.6"/>
<polygon points="25.0,45.0 23.5,41.0 26.5,41.0" fill="rgba(255,255,255,0.4)"/>
<polygon points="25.0,61.0 23.5,65.0 26.5,65.0" fill="rgba(255,255,255,0.4)"/>
<text x="25.0" y="75.0" text-anchor="middle" font-family="-apple-system, sans-serif" font-size="10" font-weight="500" fill="rgba(255,255,255,0.6)">8</text>
    <line x1="83.0" y1="33.0" x2="83.0" y2="73.0" stroke="rgba(255,255,255,0.05)" stroke-width="0.5" stroke-dasharray="8,5"/>
<line x1="33.0" y1="53.0" x2="133.0" y2="53.0" stroke="rgba(255,255,255,0.05)" stroke-width="0.5" stroke-dasharray="8,5"/>
  </g>
  <text x="83.0" y="124" text-anchor="middle" font-family="-apple-system, sans-serif" font-size="9" fill="rgba(255,255,255,0.25)" letter-spacing="0.04em">All dimensions in mm</text>
</svg>