<svg xmlns="http://www.w3.org/2000/svg" viewBox="0 0 900 134" fill="none">
  <!-- Sheet Profile — Cross-Section -->
  <g>
    <path d="M 45.0,45.3 L 45.0,59.0 L 61.0,59.0 L 845.0,59.0 L 845.0,58.7 L 845.0,45.0 L 829.0,45.0 L 45.0,45.0 L 45.0,45.3 Z" fill="rgba(196,129,58,0.15)" stroke="#E8833A" stroke-width="1.8"/>
    <line x1="45.0" y1="61.0" x2="45.0" y2="82.0" stroke="rgba(255,255,255,0.2)" stroke-width="0.5"/>
<line x1="845.0" y1="61.0" x2="845.0" y2="82.0" stroke="rgba(255,255,255,0.2)" stroke-width="0.5"/>
<line x1="45.0" y1="79.0" x2="429.0" y2="79.0" stroke="rgba(255,255,255,0.3)" stroke-width="0.6"/>
<line x1="461.0" y1="79.0" x2="845.0" y2="79.0" stroke="rgba(255,255,255,0.3)" stroke-width="0.6"/>
<polygon points="45.0,79.0 50.0,77.5 50.0,80.5" fill="rgba(255,255,255,0.4)"/>
<polygon points="845.0,79.0 840.0,77.5 840.0,80.5" fill="rgba(255,255,255,0.4)"/>
<text x="445.0" y="92.0" text-anchor="middle" font-family="-apple-system, sans-serif" font-size="10" font-weight="500" fill="rgba(255,255,255,0.6)">400</text>
    <line x1="22.0" y1="45.0" x2="43.0" y2="45.0" stroke="rgba(255,255,255,0.2)" stroke-width="0.5"/>
<line x1="22.0" y1="59.0" x2="43.0" y2="59.0" stroke="rgba(255,255,255,0.2)" stroke-width="0.5"/>
<line x1="25.0" y1="45.0" x2="25.0" y2="59.0" stroke="rgba(255,255,255,0.3)" stroke-width="0.6"/>
<polygon points="25.0,45.0 23.5,41.0 26.5,41.0" fill="rgba(255,255,255,0.4)"/>
<polygon points="25.0,59.0 23.5,63.0 26.5,63.0" fill="rgba(255,255,255,0.4)"/>
<text x="25.0" y="73.0" text-anchor="middle" font-family="-apple-system, sans-serif" font-size="10" font-weight="500" fill="rgba(255,255,255,0.6)">7</text>
    <line x1="445.0" y1="33.0" x2="445.0" y2="71.0" stroke="rgba(255,255,255,0.05)" stroke-width="0.5" stroke-dasharray="8,5"/>
<line x1="33.0" y1="52.0" x2="857.0" y2="52.0" stroke="rgba(255,255,255,0.05)" stroke-width="0.5" stroke-dasharray="8,5"/>
  </g>
  <text x="445.0" y="122" text-anchor="middle" font-family="-apple-system, sans-serif" font-size="9" fill="rgba(255,255,255,0.25)" letter-spacing="0.04em">All dimensions in mm</text>
</svg>