<svg xmlns="http://www.w3.org/2000/svg" viewBox="0 0 380 200" fill="none">
  <!--
    Door Frame Profile 85x31mm (Double Side) — Cross-Section
    Scale: 2px per mm
    Base: 85x31mm (170x62px) with centered top tab 20x11mm (40x22px)
    Chamber: 61x19mm (122x38px) centered in base
  -->

  <g transform="translate(70, 40)">
    <!-- ===== PROFILE CROSS-SECTION ===== -->

    <!-- 1. Outer shape: base rectangle + centered top tab -->
    <path d="M0,22 L0,84 L170,84 L170,22 L105,22 L105,0 L65,0 L65,22 Z"
      fill="rgba(196,129,58,0.15)" stroke="#E8833A" stroke-width="1.8"/>

    <!-- 2. Chamber void (centered in base portion) -->
    <!-- Base starts at y=22. Chamber: 12mm walls left/right = x:24 to x:146 (w=122), 6mm top/bottom = y:34 to y:72 (h=38) -->
    <rect x="24" y="34" width="122" height="38" fill="#1E2D3D" rx="2"/>
    <rect x="24" y="34" width="122" height="38" fill="none" stroke="rgba(232,131,58,0.35)" stroke-width="0.8" rx="2"/>

    <!-- 3. Subtle hatching on solid material -->
    <g opacity="0.06" stroke="#E8833A" stroke-width="0.5">
      <line x1="-5" y1="10" x2="10" y2="-5"/><line x1="-5" y1="20" x2="20" y2="-5"/>
      <line x1="-5" y1="30" x2="30" y2="-5"/><line x1="-5" y1="40" x2="40" y2="-5"/>
      <line x1="-5" y1="50" x2="50" y2="-5"/><line x1="-5" y1="60" x2="60" y2="-5"/>
      <line x1="-5" y1="70" x2="70" y2="-5"/><line x1="-5" y1="80" x2="80" y2="-5"/>
      <line x1="5" y1="90" x2="90" y2="5"/><line x1="15" y1="90" x2="100" y2="5"/>
      <line x1="100" y1="90" x2="180" y2="10"/><line x1="110" y1="90" x2="180" y2="20"/>
      <line x1="120" y1="90" x2="180" y2="30"/><line x1="130" y1="90" x2="180" y2="40"/>
      <line x1="140" y1="90" x2="180" y2="50"/><line x1="150" y1="90" x2="180" y2="60"/>
    </g>

    <!-- ===== DIMENSION LINES ===== -->

    <!-- BOTTOM: Overall width 85mm -->
    <line x1="0" y1="89" x2="0" y2="100" stroke="rgba(255,255,255,0.2)" stroke-width="0.5"/>
    <line x1="170" y1="89" x2="170" y2="100" stroke="rgba(255,255,255,0.2)" stroke-width="0.5"/>
    <line x1="0" y1="97" x2="72" y2="97" stroke="rgba(255,255,255,0.3)" stroke-width="0.6"/>
    <line x1="98" y1="97" x2="170" y2="97" stroke="rgba(255,255,255,0.3)" stroke-width="0.6"/>
    <polygon points="0,97 5,95 5,99" fill="rgba(255,255,255,0.4)"/>
    <polygon points="170,97 165,95 165,99" fill="rgba(255,255,255,0.4)"/>
    <text x="85" y="101" text-anchor="middle" font-family="-apple-system,sans-serif" font-size="11" font-weight="500" fill="rgba(255,255,255,0.7)">85</text>

    <!-- TOP: Tab width 20mm -->
    <line x1="65" y1="-5" x2="65" y2="-14" stroke="rgba(255,255,255,0.2)" stroke-width="0.5"/>
    <line x1="105" y1="-5" x2="105" y2="-14" stroke="rgba(255,255,255,0.2)" stroke-width="0.5"/>
    <line x1="65" y1="-11" x2="77" y2="-11" stroke="rgba(255,255,255,0.3)" stroke-width="0.6"/>
    <line x1="93" y1="-11" x2="105" y2="-11" stroke="rgba(255,255,255,0.3)" stroke-width="0.6"/>
    <polygon points="65,-11 69,-12.5 69,-9.5" fill="rgba(255,255,255,0.4)"/>
    <polygon points="105,-11 101,-12.5 101,-9.5" fill="rgba(255,255,255,0.4)"/>
    <text x="85" y="-7" text-anchor="middle" font-family="-apple-system,sans-serif" font-size="9" fill="rgba(255,255,255,0.45)">20</text>

    <!-- RIGHT: Base height 31mm -->
    <line x1="175" y1="22" x2="186" y2="22" stroke="rgba(255,255,255,0.2)" stroke-width="0.5"/>
    <line x1="175" y1="84" x2="186" y2="84" stroke="rgba(255,255,255,0.2)" stroke-width="0.5"/>
    <line x1="183" y1="22" x2="183" y2="46" stroke="rgba(255,255,255,0.3)" stroke-width="0.6"/>
    <line x1="183" y1="60" x2="183" y2="84" stroke="rgba(255,255,255,0.3)" stroke-width="0.6"/>
    <polygon points="183,22 181,27 185,27" fill="rgba(255,255,255,0.4)"/>
    <polygon points="183,84 181,79 185,79" fill="rgba(255,255,255,0.4)"/>
    <text x="183" y="56" text-anchor="middle" font-family="-apple-system,sans-serif" font-size="11" font-weight="500" fill="rgba(255,255,255,0.7)">31</text>

    <!-- LEFT: Tab height 11mm -->
    <line x1="-5" y1="0" x2="-14" y2="0" stroke="rgba(255,255,255,0.15)" stroke-width="0.5"/>
    <line x1="-5" y1="22" x2="-14" y2="22" stroke="rgba(255,255,255,0.15)" stroke-width="0.5"/>
    <line x1="-11" y1="0" x2="-11" y2="22" stroke="rgba(255,255,255,0.2)" stroke-width="0.5"/>
    <polygon points="-11,0 -12.5,4 -9.5,4" fill="rgba(255,255,255,0.3)"/>
    <polygon points="-11,22 -12.5,18 -9.5,18" fill="rgba(255,255,255,0.3)"/>
    <text x="-22" y="14" text-anchor="middle" font-family="-apple-system,sans-serif" font-size="9" fill="rgba(255,255,255,0.45)">11</text>

    <!-- Center axis -->
    <line x1="85" y1="-4" x2="85" y2="88" stroke="rgba(255,255,255,0.05)" stroke-width="0.5" stroke-dasharray="8,5"/>
  </g>

  <!-- Unit note -->
  <text x="190" y="178" text-anchor="middle" font-family="-apple-system,sans-serif" font-size="9" fill="rgba(255,255,255,0.25)" letter-spacing="0.04em">All dimensions in mm</text>
</svg>