<svg xmlns="http://www.w3.org/2000/svg" viewBox="0 0 380 180" fill="none">
  <!--
    Door Profile Solid 100 x 20mm — Cross-Section
    Scale: 2px per mm
    Solid profile — no voids, diagonal hatching
  -->
  <defs>
    <pattern id="hatch" patternUnits="userSpaceOnUse" width="8" height="8" patternTransform="rotate(45)">
      <line x1="0" y1="0" x2="0" y2="8" stroke="#E8833A" stroke-width="0.5" opacity="0.08"/>
    </pattern>
    <clipPath id="solidRect">
      <rect x="0" y="0" width="200" height="40" rx="1"/>
    </clipPath>
  </defs>

  <g transform="translate(55, 50)">
    <!-- ===== PROFILE CROSS-SECTION ===== -->

    <!-- Outer rectangle — solid material fill -->
    <rect x="0" y="0" width="200" height="40"
      fill="rgba(196,129,58,0.15)" stroke="#E8833A" stroke-width="1.8" rx="1"/>

    <!-- Diagonal hatching for solid profile -->
    <rect x="0" y="0" width="200" height="40" fill="url(#hatch)" clip-path="url(#solidRect)"/>

    <!-- Center axis -->
    <line x1="100" y1="-4" x2="100" y2="44" stroke="rgba(255,255,255,0.05)" stroke-width="0.5" stroke-dasharray="8,5"/>

    <!-- ===== DIMENSION LINES ===== -->

    <!-- BOTTOM: Overall width 100mm -->
    <line x1="0" y1="45" x2="0" y2="56" stroke="rgba(255,255,255,0.2)" stroke-width="0.5"/>
    <line x1="200" y1="45" x2="200" y2="56" stroke="rgba(255,255,255,0.2)" stroke-width="0.5"/>
    <line x1="0" y1="53" x2="86" y2="53" stroke="rgba(255,255,255,0.3)" stroke-width="0.6"/>
    <line x1="114" y1="53" x2="200" y2="53" stroke="rgba(255,255,255,0.3)" stroke-width="0.6"/>
    <polygon points="0,53 5,51 5,55" fill="rgba(255,255,255,0.4)"/>
    <polygon points="200,53 195,51 195,55" fill="rgba(255,255,255,0.4)"/>
    <text x="100" y="57" text-anchor="middle" font-family="-apple-system,sans-serif" font-size="11" font-weight="500" fill="rgba(255,255,255,0.7)">100</text>

    <!-- RIGHT: Overall height 20mm -->
    <line x1="205" y1="0" x2="216" y2="0" stroke="rgba(255,255,255,0.2)" stroke-width="0.5"/>
    <line x1="205" y1="40" x2="216" y2="40" stroke="rgba(255,255,255,0.2)" stroke-width="0.5"/>
    <line x1="213" y1="0" x2="213" y2="13" stroke="rgba(255,255,255,0.3)" stroke-width="0.6"/>
    <line x1="213" y1="27" x2="213" y2="40" stroke="rgba(255,255,255,0.3)" stroke-width="0.6"/>
    <polygon points="213,0 211,5 215,5" fill="rgba(255,255,255,0.4)"/>
    <polygon points="213,40 211,35 215,35" fill="rgba(255,255,255,0.4)"/>
    <text x="213" y="23" text-anchor="middle" font-family="-apple-system,sans-serif" font-size="11" font-weight="500" fill="rgba(255,255,255,0.7)">20</text>
  </g>

  <!-- Unit note -->
  <text x="190" y="150" text-anchor="middle" font-family="-apple-system,sans-serif" font-size="9" fill="rgba(255,255,255,0.25)" letter-spacing="0.04em">All dimensions in mm</text>
</svg>