<svg xmlns="http://www.w3.org/2000/svg" viewBox="40.0 51.0 392.0 48.0">
<path fill="#FFFFFF" d="M106.0 51.0L106.7 51.0L107.0 51.0L107.0 51.7L107.0 52.3L107.0 53.0L107.7 53.0L108.0 53.0L108.0 53.7L108.0 54.3L108.0 55.0L108.7 55.0L109.0 55.0L109.0 55.7L109.0 56.3L109.0 57.0L109.7 57.0L110.0 57.0L110.0 57.7L110.0 58.3L110.0 59.0L110.7 59.0L111.0 59.0L111.0 59.7L111.0 60.3L111.0 61.0L111.0 61.7L111.0 62.0L111.7 62.0L112.0 62.0L112.0 62.7L112.0 63.3L112.0 64.0L112.7 64.0L113.0 64.0L113.0 64.7L113.0 65.3L113.0 66.0L113.7 66.0L114.0 66.0L114.0 66.7L114.0 67.3L114.0 68.0L114.7 68.0L115.0 68.0L115.0 68.7L115.0 69.3L115.0 70.0L115.7 70.0L116.0 70.0L116.0 70.7L116.0 71.3L116.0 72.0L116.7 72.0L117.0 72.0L117.0 72.7L117.0 73.3L117.0 74.0L117.7 74.0L118.0 74.0L118.0 74.7L118.0 75.3L118.0 76.0L118.7 76.0L119.0 76.0L119.0 76.7L119.0 77.3L119.0 78.0L119.7 78.0L120.0 78.0L120.0 78.7L120.0 79.3L120.0 80.0L120.0 80.7L120.0 81.0L120.7 81.0L121.0 81.0L121.0 81.7L121.0 82.3L121.0 83.0L121.7 83.0L122.0 83.0L122.0 83.7L122.0 84.3L122.0 85.0L122.7 85.0L123.0 85.0L123.0 85.7L123.0 86.3L123.0 87.0L123.7 87.0L124.0 87.0L124.0 87.7L124.0 88.3L124.0 89.0L124.7 89.0L125.0 89.0L125.0 89.7L125.0 90.3L125.0 91.0L125.7 91.0L126.0 91.0L126.0 91.7L126.0 92.3L126.0 93.0L126.7 93.0L127.0 93.0L127.0 93.7L127.0 94.3L127.0 95.0L127.7 95.0L128.0 95.0L128.0 95.7L128.0 96.3L128.0 97.0L127.3 97.0L126.7 97.0L126.0 97.0L125.3 97.0L124.7 97.0L124.0 97.0L123.3 97.0L122.7 97.0L122.0 97.0L121.3 97.0L120.7 97.0L120.0 97.0L120.0 96.3L120.0 95.7L120.0 95.0L119.3 95.0L119.0 95.0L119.0 94.3L119.0 93.7L119.0 93.0L119.0 92.3L119.0 92.0L118.3 92.0L118.0 92.0L118.0 91.3L118.0 90.7L118.0 90.0L117.3 90.0L117.0 90.0L117.0 89.3L117.0 88.7L117.0 88.0L116.3 88.0L116.0 88.0L116.0 87.3L116.0 86.7L116.0 86.0L115.3 86.0L114.7 86.0L114.0 86.0L113.3 86.0L112.7 86.0L112.0 86.0L111.3 86.0L110.7 86.0L110.0 86.0L109.3 86.0L108.7 86.0L108.0 86.0L107.3 86.0L106.7 86.0L106.0 86.0L105.3 86.0L104.7 86.0L104.0 86.0L103.3 86.0L102.7 86.0L102.0 86.0L101.3 86.0L100.7 86.0L100.0 86.0L99.3 86.0L98.7 86.0L98.0 86.0L97.3 86.0L96.7 86.0L96.0 86.0L96.0 86.7L96.0 87.3L96.0 88.0L95.3 88.0L95.0 88.0L95.0 88.7L95.0 89.3L95.0 90.0L94.3 90.0L94.0 90.0L94.0 90.7L94.0 91.3L94.0 92.0L93.3 92.0L93.0 92.0L93.0 92.7L93.0 93.3L93.0 94.0L92.3 94.0L92.0 94.0L92.0 94.7L92.0 95.3L92.0 96.0L91.3 96.0L91.0 96.0L91.0 96.7L91.0 97.0L90.3 97.0L89.7 97.0L89.0 97.0L88.3 97.0L87.7 97.0L87.0 97.0L86.3 97.0L85.7 97.0L85.0 97.0L84.3 97.0L84.0 97.0L84.0 96.3L84.0 95.7L84.0 95.0L84.7 95.0L85.0 95.0L85.0 94.3L85.0 93.7L85.0 93.0L85.7 93.0L86.0 93.0L86.0 92.3L86.0 91.7L86.0 91.0L86.7 91.0L87.0 91.0L87.0 90.3L87.0 89.7L87.0 89.0L87.7 89.0L88.0 89.0L88.0 88.3L88.0 87.7L88.0 87.0L88.7 87.0L89.0 87.0L89.0 86.3L89.0 85.7L89.0 85.0L89.0 84.3L89.0 84.0L89.7 84.0L90.0 84.0L90.0 83.3L90.0 82.7L90.0 82.0L90.7 82.0L91.0 82.0L91.0 81.3L91.0 81.0L91.7 81.0L92.0 81.0L92.0 80.3L92.0 79.7L92.0 79.0L92.0 78.3L92.0 78.0L92.7 78.0L93.0 78.0L93.0 77.3L93.0 76.7L93.0 76.0L93.7 76.0L94.0 76.0L94.0 75.3L94.0 74.7L94.0 74.0L94.7 74.0L95.0 74.0L95.0 73.3L95.0 72.7L95.0 72.0L95.7 72.0L96.0 72.0L96.0 71.3L96.0 70.7L96.0 70.0L96.7 70.0L97.0 70.0L97.0 69.3L97.0 68.7L97.0 68.0L97.7 68.0L98.0 68.0L98.0 67.3L98.0 66.7L98.0 66.0L98.7 66.0L99.0 66.0L99.0 65.3L99.0 64.7L99.0 64.0L99.7 64.0L100.0 64.0L100.0 63.3L100.0 62.7L100.0 62.0L100.7 62.0L101.0 62.0L101.0 61.3L101.0 60.7L101.0 60.0L101.7 60.0L102.0 60.0L102.0 59.3L102.0 58.7L102.0 58.0L102.7 58.0L103.0 58.0L103.0 57.3L103.0 56.7L103.0 56.0L103.7 56.0L104.0 56.0L104.0 55.3L104.0 54.7L104.0 54.0L104.7 54.0L105.0 54.0L105.0 53.3L105.0 52.7L105.0 52.0L105.7 52.0L106.0 52.0L106.0 51.3Z M356.0 52.0L356.7 52.0L357.3 52.0L358.0 52.0L358.7 52.0L359.3 52.0L360.0 52.0L360.0 52.7L360.0 53.0L360.7 53.0L361.3 53.0L362.0 53.0L362.7 53.0L363.3 53.0L364.0 53.0L364.7 53.0L365.3 53.0L366.0 53.0L366.0 53.7L366.0 54.0L366.7 54.0L367.3 54.0L368.0 54.0L368.0 54.7L368.0 55.0L368.7 55.0L369.3 55.0L370.0 55.0L370.0 55.7L370.0 56.0L370.7 56.0L371.3 56.0L372.0 56.0L372.0 56.7L372.0 57.0L372.7 57.0L373.0 57.0L373.0 57.7L373.0 58.0L373.7 58.0L374.0 58.0L374.0 58.7L374.0 59.0L374.7 59.0L375.0 59.0L375.0 59.7L375.0 60.0L375.7 60.0L376.0 60.0L376.0 60.7L376.0 61.0L376.7 61.0L377.0 61.0L377.0 61.7L377.0 62.0L377.7 62.0L378.0 62.0L378.0 62.7L378.0 63.0L378.7 63.0L379.0 63.0L379.0 63.7L379.0 64.3L379.0 65.0L379.7 65.0L380.0 65.0L380.0 65.7L380.0 66.3L380.0 67.0L380.7 67.0L381.0 67.0L381.0 67.7L381.0 68.3L381.0 69.0L381.0 69.7L381.0 70.0L381.7 70.0L382.0 70.0L382.0 70.7L382.0 71.3L382.0 72.0L382.0 72.7L382.0 73.3L382.0 74.0L382.0 74.7L382.0 75.3L382.0 76.0L382.0 76.7L382.0 77.3L382.0 78.0L382.0 78.7L382.0 79.3L382.0 80.0L381.3 80.0L381.0 80.0L381.0 80.7L381.0 81.3L381.0 82.0L381.0 82.7L381.0 83.0L380.3 83.0L380.0 83.0L380.0 83.7L380.0 84.3L380.0 85.0L379.3 85.0L379.0 85.0L379.0 85.7L379.0 86.3L379.0 87.0L378.3 87.0L378.0 87.0L378.0 87.7L378.0 88.0L377.3 88.0L377.0 88.0L377.0 88.7L377.0 89.3L377.0 90.0L376.3 90.0L376.0 90.0L376.0 90.7L376.0 91.0L375.3 91.0L375.0 91.0L375.0 91.7L375.0 92.0L374.3 92.0L373.7 92.0L373.0 92.0L373.0 92.7L373.0 93.0L372.3 93.0L372.0 93.0L372.0 93.7L372.0 94.0L371.3 94.0L370.7 94.0L370.0 94.0L370.0 94.7L370.0 95.0L369.3 95.0L369.0 95.0L369.0 95.7L369.0 96.0L368.3 96.0L367.7 96.0L367.0 96.0L366.3 96.0L366.0 96.0L366.0 96.7L366.0 97.0L365.3 97.0L364.7 97.0L364.0 97.0L363.3 97.0L362.7 97.0L362.0 97.0L361.3 97.0L361.0 97.0L361.0 97.7L361.0 98.0L360.3 98.0L359.7 98.0L359.0 98.0L358.3 98.0L357.7 98.0L357.0 98.0L356.3 98.0L355.7 98.0L355.0 98.0L355.0 97.3L355.0 97.0L354.3 97.0L353.7 97.0L353.0 97.0L352.3 97.0L351.7 97.0L351.0 97.0L350.3 97.0L350.0 97.0L350.0 96.3L350.0 96.0L349.3 96.0L348.7 96.0L348.0 96.0L348.0 95.3L348.0 95.0L347.3 95.0L346.7 95.0L346.0 95.0L346.0 94.3L346.0 94.0L345.3 94.0L344.7 94.0L344.0 94.0L344.0 93.3L344.0 93.0L343.3 93.0L343.0 93.0L343.0 92.3L343.0 92.0L342.3 92.0L341.7 92.0L341.0 92.0L341.0 91.3L341.0 91.0L340.3 91.0L340.0 91.0L340.0 90.3L340.0 90.0L339.3 90.0L339.0 90.0L339.0 89.3L339.0 89.0L338.3 89.0L338.0 89.0L338.0 88.3L338.0 87.7L338.0 87.0L337.3 87.0L337.0 87.0L337.0 86.3L337.0 85.7L337.0 85.0L336.3 85.0L336.0 85.0L336.0 84.3L336.0 83.7L336.0 83.0L335.3 83.0L335.0 83.0L335.0 82.3L335.0 81.7L335.0 81.0L335.0 80.3L335.0 80.0L334.3 80.0L334.0 80.0L334.0 79.3L334.0 78.7L334.0 78.0L334.0 77.3L334.0 76.7L334.0 76.0L334.0 75.3L334.0 74.7L334.0 74.0L334.0 73.3L334.0 72.7L334.0 72.0L334.0 71.3L334.0 70.7L334.0 70.0L334.7 70.0L335.0 70.0L335.0 69.3L335.0 68.7L335.0 68.0L335.0 67.3L335.0 67.0L335.7 67.0L336.0 67.0L336.0 66.3L336.0 65.7L336.0 65.0L336.7 65.0L337.0 65.0L337.0 64.3L337.0 63.7L337.0 63.0L337.7 63.0L338.0 63.0L338.0 62.3L338.0 62.0L338.7 62.0L339.0 62.0L339.0 61.3L339.0 61.0L339.7 61.0L340.0 61.0L340.0 60.3L340.0 60.0L340.7 60.0L341.0 60.0L341.0 59.3L341.0 59.0L341.7 59.0L342.0 59.0L342.0 58.3L342.0 58.0L342.7 58.0L343.0 58.0L343.0 57.3L343.0 57.0L343.7 57.0L344.0 57.0L344.0 56.3L344.0 56.0L344.7 56.0L345.3 56.0L346.0 56.0L346.0 55.3L346.0 55.0L346.7 55.0L347.3 55.0L348.0 55.0L348.0 54.3L348.0 54.0L348.7 54.0L349.3 54.0L350.0 54.0L350.0 53.3L350.0 53.0L350.7 53.0L351.3 53.0L352.0 53.0L352.7 53.0L353.3 53.0L354.0 53.0L354.7 53.0L355.3 53.0L356.0 53.0L356.0 52.3Z M40.0 53.0L40.7 53.0L41.3 53.0L42.0 53.0L42.7 53.0L43.3 53.0L44.0 53.0L44.7 53.0L45.3 53.0L46.0 53.0L46.7 53.0L47.0 53.0L47.0 53.7L47.0 54.3L47.0 55.0L47.0 55.7L47.0 56.3L47.0 57.0L47.0 57.7L47.0 58.3L47.0 59.0L47.0 59.7L47.0 60.3L47.0 61.0L47.0 61.7L47.0 62.3L47.0 63.0L47.0 63.7L47.0 64.3L47.0 65.0L47.0 65.7L47.0 66.3L47.0 67.0L47.0 67.7L47.0 68.3L47.0 69.0L47.0 69.7L47.0 70.0L47.7 70.0L48.0 70.0L48.0 69.3L48.0 69.0L48.7 69.0L49.0 69.0L49.0 68.3L49.0 68.0L49.7 68.0L50.0 68.0L50.0 67.3L50.0 67.0L50.7 67.0L51.0 67.0L51.0 66.3L51.0 66.0L51.7 66.0L52.0 66.0L52.0 65.3L52.0 65.0L52.7 65.0L53.0 65.0L53.0 64.3L53.0 64.0L53.7 64.0L54.0 64.0L54.0 63.3L54.0 63.0L54.7 63.0L55.0 63.0L55.0 62.3L55.0 62.0L55.7 62.0L56.0 62.0L56.0 61.3L56.0 61.0L56.7 61.0L57.0 61.0L57.0 60.3L57.0 60.0L57.7 60.0L58.0 60.0L58.0 59.3L58.0 59.0L58.7 59.0L59.0 59.0L59.0 58.3L59.0 58.0L59.7 58.0L60.0 58.0L60.0 57.3L60.0 57.0L60.7 57.0L61.0 57.0L61.0 56.3L61.0 56.0L61.7 56.0L62.0 56.0L62.0 55.3L62.0 55.0L62.7 55.0L63.0 55.0L63.0 54.3L63.0 54.0L63.7 54.0L64.0 54.0L64.0 53.3L64.0 53.0L64.7 53.0L65.3 53.0L66.0 53.0L66.7 53.0L67.3 53.0L68.0 53.0L68.7 53.0L69.3 53.0L70.0 53.0L70.7 53.0L71.3 53.0L72.0 53.0L72.7 53.0L73.3 53.0L74.0 53.0L74.0 53.7L74.0 54.0L73.3 54.0L73.0 54.0L73.0 54.7L73.0 55.0L72.3 55.0L72.0 55.0L72.0 55.7L72.0 56.0L71.3 56.0L71.0 56.0L71.0 56.7L71.0 57.0L70.3 57.0L70.0 57.0L70.0 57.7L70.0 58.0L69.3 58.0L68.7 58.0L68.0 58.0L68.0 58.7L68.0 59.0L67.3 59.0L67.0 59.0L67.0 59.7L67.0 60.0L66.3 60.0L66.0 60.0L66.0 60.7L66.0 61.0L65.3 61.0L65.0 61.0L65.0 61.7L65.0 62.0L64.3 62.0L64.0 62.0L64.0 62.7L64.0 63.0L63.3 63.0L63.0 63.0L63.0 63.7L63.0 64.0L62.3 64.0L62.0 64.0L62.0 64.7L62.0 65.0L61.3 65.0L61.0 65.0L61.0 65.7L61.0 66.0L60.3 66.0L60.0 66.0L60.0 66.7L60.0 67.0L59.3 67.0L59.0 67.0L59.0 67.7L59.0 68.0L58.3 68.0L58.0 68.0L58.0 68.7L58.0 69.0L57.3 69.0L57.0 69.0L57.0 69.7L57.0 70.0L56.3 70.0L56.0 70.0L56.0 70.7L56.0 71.0L55.3 71.0L55.0 71.0L55.0 71.7L55.0 72.0L54.3 72.0L54.0 72.0L54.0 72.7L54.0 73.3L54.0 74.0L54.7 74.0L55.0 74.0L55.0 74.7L55.0 75.3L55.0 76.0L55.7 76.0L56.0 76.0L56.0 76.7L56.0 77.0L56.7 77.0L57.0 77.0L57.0 77.7L57.0 78.0L57.7 78.0L58.0 78.0L58.0 78.7L58.0 79.0L58.7 79.0L59.0 79.0L59.0 79.7L59.0 80.0L59.7 80.0L60.0 80.0L60.0 80.7L60.0 81.0L60.7 81.0L61.0 81.0L61.0 81.7L61.0 82.0L61.7 82.0L62.0 82.0L62.0 82.7L62.0 83.0L62.7 83.0L63.0 83.0L63.0 83.7L63.0 84.3L63.0 85.0L63.7 85.0L64.0 85.0L64.0 85.7L64.0 86.0L64.7 86.0L65.0 86.0L65.0 86.7L65.0 87.0L65.7 87.0L66.0 87.0L66.0 87.7L66.0 88.0L66.7 88.0L67.0 88.0L67.0 88.7L67.0 89.0L67.7 89.0L68.0 89.0L68.0 89.7L68.0 90.0L68.7 90.0L69.0 90.0L69.0 90.7L69.0 91.3L69.0 92.0L69.7 92.0L70.0 92.0L70.0 92.7L70.0 93.0L70.7 93.0L71.0 93.0L71.0 93.7L71.0 94.0L71.7 94.0L72.0 94.0L72.0 94.7L72.0 95.0L72.7 95.0L73.0 95.0L73.0 95.7L73.0 96.0L73.7 96.0L74.0 96.0L74.0 96.7L74.0 97.0L73.3 97.0L72.7 97.0L72.0 97.0L71.3 97.0L70.7 97.0L70.0 97.0L69.3 97.0L68.7 97.0L68.0 97.0L67.3 97.0L66.7 97.0L66.0 97.0L65.3 97.0L64.7 97.0L64.0 97.0L64.0 96.3L64.0 95.7L64.0 95.0L63.3 95.0L63.0 95.0L63.0 94.3L63.0 94.0L62.3 94.0L62.0 94.0L62.0 93.3L62.0 93.0L61.3 93.0L61.0 93.0L61.0 92.3L61.0 92.0L60.3 92.0L60.0 92.0L60.0 91.3L60.0 91.0L59.3 91.0L59.0 91.0L59.0 90.3L59.0 90.0L58.3 90.0L58.0 90.0L58.0 89.3L58.0 88.7L58.0 88.0L57.3 88.0L57.0 88.0L57.0 87.3L57.0 87.0L56.3 87.0L56.0 87.0L56.0 86.3L56.0 86.0L55.3 86.0L55.0 86.0L55.0 85.3L55.0 85.0L54.3 85.0L54.0 85.0L54.0 84.3L54.0 84.0L53.3 84.0L53.0 84.0L53.0 83.3L53.0 83.0L52.3 83.0L52.0 83.0L52.0 82.3L52.0 81.7L52.0 81.0L51.3 81.0L51.0 81.0L51.0 80.3L51.0 80.0L50.3 80.0L50.0 80.0L50.0 79.3L50.0 79.0L49.3 79.0L49.0 79.0L49.0 78.3L49.0 78.0L48.3 78.0L47.7 78.0L47.0 78.0L47.0 78.7L47.0 79.3L47.0 80.0L47.0 80.7L47.0 81.3L47.0 82.0L47.0 82.7L47.0 83.3L47.0 84.0L47.0 84.7L47.0 85.3L47.0 86.0L47.0 86.7L47.0 87.3L47.0 88.0L47.0 88.7L47.0 89.3L47.0 90.0L47.0 90.7L47.0 91.3L47.0 92.0L47.0 92.7L47.0 93.3L47.0 94.0L47.0 94.7L47.0 95.3L47.0 96.0L47.0 96.7L47.0 97.0L46.3 97.0L45.7 97.0L45.0 97.0L44.3 97.0L43.7 97.0L43.0 97.0L42.3 97.0L41.7 97.0L41.0 97.0L40.3 97.0L40.0 97.0L40.0 96.3L40.0 95.7L40.0 95.0L40.0 94.3L40.0 93.7L40.0 93.0L40.0 92.3L40.0 91.7L40.0 91.0L40.0 90.3L40.0 89.7L40.0 89.0L40.0 88.3L40.0 87.7L40.0 87.0L40.0 86.3L40.0 85.7L40.0 85.0L40.0 84.3L40.0 83.7L40.0 83.0L40.0 82.3L40.0 81.7L40.0 81.0L40.0 80.3L40.0 79.7L40.0 79.0L40.0 78.3L40.0 77.7L40.0 77.0L40.0 76.3L40.0 75.7L40.0 75.0L40.0 74.3L40.0 73.7L40.0 73.0L40.0 72.3L40.0 71.7L40.0 71.0L40.0 70.3L40.0 69.7L40.0 69.0L40.0 68.3L40.0 67.7L40.0 67.0L40.0 66.3L40.0 65.7L40.0 65.0L40.0 64.3L40.0 63.7L40.0 63.0L40.0 62.3L40.0 61.7L40.0 61.0L40.0 60.3L40.0 59.7L40.0 59.0L40.0 58.3L40.0 57.7L40.0 57.0L40.0 56.3L40.0 55.7L40.0 55.0L40.0 54.3L40.0 53.7L40.0 53.3Z M133.0 53.0L133.7 53.0L134.3 53.0L135.0 53.0L135.7 53.0L136.3 53.0L137.0 53.0L137.7 53.0L138.3 53.0L139.0 53.0L139.7 53.0L140.3 53.0L141.0 53.0L141.0 53.7L141.0 54.3L141.0 55.0L141.7 55.0L142.0 55.0L142.0 55.7L142.0 56.0L142.7 56.0L143.0 56.0L143.0 56.7L143.0 57.3L143.0 58.0L143.7 58.0L144.0 58.0L144.0 58.7L144.0 59.3L144.0 60.0L144.7 60.0L145.0 60.0L145.0 60.7L145.0 61.0L145.7 61.0L146.0 61.0L146.0 61.7L146.0 62.3L146.0 63.0L146.7 63.0L147.0 63.0L147.0 63.7L147.0 64.0L147.7 64.0L148.0 64.0L148.0 64.7L148.0 65.3L148.0 66.0L148.7 66.0L149.0 66.0L149.0 66.7L149.0 67.3L149.0 68.0L149.7 68.0L150.0 68.0L150.0 68.7L150.0 69.0L150.7 69.0L151.0 69.0L151.0 69.7L151.0 70.0L151.7 70.0L152.0 70.0L152.0 69.3L152.0 68.7L152.0 68.0L152.7 68.0L153.0 68.0L153.0 67.3L153.0 67.0L153.7 67.0L154.0 67.0L154.0 66.3L154.0 65.7L154.0 65.0L154.7 65.0L155.0 65.0L155.0 64.3L155.0 63.7L155.0 63.0L155.7 63.0L156.0 63.0L156.0 62.3L156.0 62.0L156.7 62.0L157.0 62.0L157.0 61.3L157.0 60.7L157.0 60.0L157.7 60.0L158.0 60.0L158.0 59.3L158.0 58.7L158.0 58.0L158.7 58.0L159.0 58.0L159.0 57.3L159.0 57.0L159.7 57.0L160.0 57.0L160.0 56.3L160.0 55.7L160.0 55.0L160.7 55.0L161.0 55.0L161.0 54.3L161.0 54.0L161.7 54.0L162.0 54.0L162.0 53.3L162.0 53.0L162.7 53.0L163.3 53.0L164.0 53.0L164.7 53.0L165.3 53.0L166.0 53.0L166.7 53.0L167.3 53.0L168.0 53.0L168.7 53.0L169.0 53.0L169.0 53.7L169.0 54.3L169.0 55.0L168.3 55.0L168.0 55.0L168.0 55.7L168.0 56.3L168.0 57.0L167.3 57.0L167.0 57.0L167.0 57.7L167.0 58.3L167.0 59.0L166.3 59.0L166.0 59.0L166.0 59.7L166.0 60.0L165.3 60.0L165.0 60.0L165.0 60.7L165.0 61.3L165.0 62.0L164.3 62.0L164.0 62.0L164.0 62.7L164.0 63.3L164.0 64.0L163.3 64.0L163.0 64.0L163.0 64.7L163.0 65.0L162.3 65.0L162.0 65.0L162.0 65.7L162.0 66.3L162.0 67.0L161.3 67.0L161.0 67.0L161.0 67.7L161.0 68.0L160.3 68.0L160.0 68.0L160.0 68.7L160.0 69.3L160.0 70.0L159.3 70.0L159.0 70.0L159.0 70.7L159.0 71.3L159.0 72.0L158.3 72.0L158.0 72.0L158.0 72.7L158.0 73.0L157.3 73.0L157.0 73.0L157.0 73.7L157.0 74.3L157.0 75.0L156.3 75.0L156.0 75.0L156.0 75.7L156.0 76.3L156.0 77.0L155.3 77.0L155.0 77.0L155.0 77.7L155.0 78.3L155.0 79.0L155.0 79.7L155.0 80.3L155.0 81.0L155.0 81.7L155.0 82.3L155.0 83.0L155.0 83.7L155.0 84.3L155.0 85.0L155.0 85.7L155.0 86.3L155.0 87.0L155.0 87.7L155.0 88.3L155.0 89.0L155.0 89.7L155.0 90.3L155.0 91.0L155.0 91.7L155.0 92.3L155.0 93.0L155.0 93.7L155.0 94.3L155.0 95.0L155.0 95.7L155.0 96.3L155.0 97.0L154.3 97.0L153.7 97.0L153.0 97.0L152.3 97.0L151.7 97.0L151.0 97.0L150.3 97.0L149.7 97.0L149.0 97.0L148.3 97.0L148.0 97.0L148.0 96.3L148.0 95.7L148.0 95.0L148.0 94.3L148.0 93.7L148.0 93.0L148.0 92.3L148.0 91.7L148.0 91.0L148.0 90.3L148.0 89.7L148.0 89.0L148.0 88.3L148.0 87.7L148.0 87.0L148.0 86.3L148.0 85.7L148.0 85.0L148.0 84.3L148.0 83.7L148.0 83.0L148.0 82.3L148.0 81.7L148.0 81.0L148.0 80.3L148.0 79.7L148.0 79.0L148.0 78.3L148.0 78.0L147.3 78.0L147.0 78.0L147.0 77.3L147.0 76.7L147.0 76.0L146.3 76.0L146.0 76.0L146.0 75.3L146.0 74.7L146.0 74.0L145.3 74.0L145.0 74.0L145.0 73.3L145.0 73.0L144.3 73.0L144.0 73.0L144.0 72.3L144.0 71.7L144.0 71.0L143.3 71.0L143.0 71.0L143.0 70.3L143.0 70.0L142.3 70.0L142.0 70.0L142.0 69.3L142.0 68.7L142.0 68.0L141.3 68.0L141.0 68.0L141.0 67.3L141.0 66.7L141.0 66.0L140.3 66.0L140.0 66.0L140.0 65.3L140.0 65.0L139.3 65.0L139.0 65.0L139.0 64.3L139.0 63.7L139.0 63.0L138.3 63.0L138.0 63.0L138.0 62.3L138.0 61.7L138.0 61.0L137.3 61.0L137.0 61.0L137.0 60.3L137.0 60.0L136.3 60.0L136.0 60.0L136.0 59.3L136.0 58.7L136.0 58.0L135.3 58.0L135.0 58.0L135.0 57.3L135.0 56.7L135.0 56.0L134.3 56.0L134.0 56.0L134.0 55.3L134.0 55.0L133.3 55.0L133.0 55.0L133.0 54.3L133.0 53.7L133.0 53.3Z M183.0 53.0L183.7 53.0L184.3 53.0L185.0 53.0L185.7 53.0L186.3 53.0L187.0 53.0L187.7 53.0L188.3 53.0L189.0 53.0L189.7 53.0L190.0 53.0L190.0 53.7L190.0 54.0L190.7 54.0L191.0 54.0L191.0 54.7L191.0 55.3L191.0 56.0L191.0 56.7L191.0 57.3L191.0 58.0L191.0 58.7L191.0 59.3L191.0 60.0L191.0 60.7L191.0 61.3L191.0 62.0L191.0 62.7L191.0 63.3L191.0 64.0L191.0 64.7L191.0 65.3L191.0 66.0L191.0 66.7L191.0 67.3L191.0 68.0L191.0 68.7L191.0 69.3L191.0 70.0L191.0 70.7L191.0 71.3L191.0 72.0L191.0 72.7L191.0 73.3L191.0 74.0L191.0 74.7L191.0 75.3L191.0 76.0L191.0 76.7L191.0 77.3L191.0 78.0L191.0 78.7L191.0 79.3L191.0 80.0L191.0 80.7L191.0 81.3L191.0 82.0L191.0 82.7L191.0 83.3L191.0 84.0L191.0 84.7L191.0 85.3L191.0 86.0L191.7 86.0L192.0 86.0L192.0 86.7L192.0 87.3L192.0 88.0L192.7 88.0L193.0 88.0L193.0 88.7L193.0 89.0L193.7 89.0L194.0 89.0L194.0 89.7L194.0 90.0L194.7 90.0L195.3 90.0L196.0 90.0L196.0 90.7L196.0 91.0L196.7 91.0L197.3 91.0L198.0 91.0L198.7 91.0L199.3 91.0L200.0 91.0L200.7 91.0L201.3 91.0L202.0 91.0L202.7 91.0L203.3 91.0L204.0 91.0L204.7 91.0L205.0 91.0L205.0 90.3L205.0 90.0L205.7 90.0L206.3 90.0L207.0 90.0L207.0 89.3L207.0 89.0L207.7 89.0L208.0 89.0L208.0 88.3L208.0 88.0L208.7 88.0L209.0 88.0L209.0 87.3L209.0 86.7L209.0 86.0L209.7 86.0L210.0 86.0L210.0 85.3L210.0 84.7L210.0 84.0L210.0 83.3L210.0 82.7L210.0 82.0L210.0 81.3L210.0 80.7L210.0 80.0L210.0 79.3L210.0 78.7L210.0 78.0L210.0 77.3L210.0 76.7L210.0 76.0L210.0 75.3L210.0 74.7L210.0 74.0L210.0 73.3L210.0 72.7L210.0 72.0L210.0 71.3L210.0 70.7L210.0 70.0L210.0 69.3L210.0 68.7L210.0 68.0L210.0 67.3L210.0 66.7L210.0 66.0L210.0 65.3L210.0 64.7L210.0 64.0L210.0 63.3L210.0 62.7L210.0 62.0L210.0 61.3L210.0 60.7L210.0 60.0L210.0 59.3L210.0 58.7L210.0 58.0L210.0 57.3L210.0 56.7L210.0 56.0L210.0 55.3L210.0 54.7L210.0 54.0L210.7 54.0L211.0 54.0L211.0 53.3L211.0 53.0L211.7 53.0L212.3 53.0L213.0 53.0L213.7 53.0L214.3 53.0L215.0 53.0L215.7 53.0L216.3 53.0L217.0 53.0L217.0 53.7L217.0 54.0L217.7 54.0L218.0 54.0L218.0 54.7L218.0 55.3L218.0 56.0L218.0 56.7L218.0 57.3L218.0 58.0L218.0 58.7L218.0 59.3L218.0 60.0L218.0 60.7L218.0 61.3L218.0 62.0L218.0 62.7L218.0 63.3L218.0 64.0L218.0 64.7L218.0 65.3L218.0 66.0L218.0 66.7L218.0 67.3L218.0 68.0L218.0 68.7L218.0 69.3L218.0 70.0L218.0 70.7L218.0 71.3L218.0 72.0L218.0 72.7L218.0 73.3L218.0 74.0L218.0 74.7L218.0 75.3L218.0 76.0L218.0 76.7L218.0 77.3L218.0 78.0L218.0 78.7L218.0 79.3L218.0 80.0L218.0 80.7L218.0 81.3L218.0 82.0L217.3 82.0L217.0 82.0L217.0 82.7L217.0 83.3L217.0 84.0L217.0 84.7L217.0 85.3L217.0 86.0L217.0 86.7L217.0 87.0L216.3 87.0L216.0 87.0L216.0 87.7L216.0 88.3L216.0 89.0L215.3 89.0L215.0 89.0L215.0 89.7L215.0 90.3L215.0 91.0L214.3 91.0L214.0 91.0L214.0 91.7L214.0 92.0L213.3 92.0L213.0 92.0L213.0 92.7L213.0 93.0L212.3 93.0L212.0 93.0L212.0 93.7L212.0 94.0L211.3 94.0L211.0 94.0L211.0 94.7L211.0 95.0L210.3 95.0L209.7 95.0L209.0 95.0L209.0 95.7L209.0 96.0L208.3 96.0L207.7 96.0L207.0 96.0L207.0 96.7L207.0 97.0L206.3 97.0L205.7 97.0L205.0 97.0L204.3 97.0L203.7 97.0L203.0 97.0L203.0 97.7L203.0 98.0L202.3 98.0L201.7 98.0L201.0 98.0L200.3 98.0L199.7 98.0L199.0 98.0L198.3 98.0L198.0 98.0L198.0 97.3L198.0 97.0L197.3 97.0L196.7 97.0L196.0 97.0L195.3 97.0L194.7 97.0L194.0 97.0L194.0 96.3L194.0 96.0L193.3 96.0L192.7 96.0L192.0 96.0L192.0 95.3L192.0 95.0L191.3 95.0L190.7 95.0L190.0 95.0L190.0 94.3L190.0 94.0L189.3 94.0L189.0 94.0L189.0 93.3L189.0 93.0L188.3 93.0L188.0 93.0L188.0 92.3L188.0 92.0L187.3 92.0L187.0 92.0L187.0 91.3L187.0 91.0L186.3 91.0L186.0 91.0L186.0 90.3L186.0 90.0L185.3 90.0L185.0 90.0L185.0 89.3L185.0 88.7L185.0 88.0L185.0 87.3L185.0 87.0L184.3 87.0L184.0 87.0L184.0 86.3L184.0 85.7L184.0 85.0L184.0 84.3L184.0 83.7L184.0 83.0L183.3 83.0L183.0 83.0L183.0 82.3L183.0 81.7L183.0 81.0L183.0 80.3L183.0 79.7L183.0 79.0L183.0 78.3L183.0 77.7L183.0 77.0L183.0 76.3L183.0 75.7L183.0 75.0L183.0 74.3L183.0 73.7L183.0 73.0L183.0 72.3L183.0 71.7L183.0 71.0L183.0 70.3L183.0 69.7L183.0 69.0L183.0 68.3L183.0 67.7L183.0 67.0L183.0 66.3L183.0 65.7L183.0 65.0L183.0 64.3L183.0 63.7L183.0 63.0L183.0 62.3L183.0 61.7L183.0 61.0L183.0 60.3L183.0 59.7L183.0 59.0L183.0 58.3L183.0 57.7L183.0 57.0L183.0 56.3L183.0 55.7L183.0 55.0L183.0 54.3L183.0 53.7L183.0 53.3Z M290.0 53.0L290.7 53.0L291.3 53.0L292.0 53.0L292.7 53.0L293.3 53.0L294.0 53.0L294.7 53.0L295.3 53.0L296.0 53.0L296.7 53.0L297.0 53.0L297.0 53.7L297.0 54.3L297.0 55.0L297.0 55.7L297.0 56.3L297.0 57.0L297.0 57.7L297.0 58.3L297.0 59.0L297.0 59.7L297.0 60.3L297.0 61.0L297.0 61.7L297.0 62.3L297.0 63.0L297.0 63.7L297.0 64.3L297.0 65.0L297.0 65.7L297.0 66.3L297.0 67.0L297.0 67.7L297.0 68.3L297.0 69.0L297.0 69.7L297.0 70.0L297.7 70.0L298.0 70.0L298.0 69.3L298.0 69.0L298.7 69.0L299.0 69.0L299.0 68.3L299.0 68.0L299.7 68.0L300.0 68.0L300.0 67.3L300.0 67.0L300.7 67.0L301.0 67.0L301.0 66.3L301.0 66.0L301.7 66.0L302.0 66.0L302.0 65.3L302.0 65.0L302.7 65.0L303.0 65.0L303.0 64.3L303.0 64.0L303.7 64.0L304.0 64.0L304.0 63.3L304.0 63.0L304.7 63.0L305.0 63.0L305.0 62.3L305.0 62.0L305.7 62.0L306.0 62.0L306.0 61.3L306.0 61.0L306.7 61.0L307.0 61.0L307.0 60.3L307.0 60.0L307.7 60.0L308.0 60.0L308.0 59.3L308.0 59.0L308.7 59.0L309.0 59.0L309.0 58.3L309.0 58.0L309.7 58.0L310.0 58.0L310.0 57.3L310.0 57.0L310.7 57.0L311.0 57.0L311.0 56.3L311.0 56.0L311.7 56.0L312.0 56.0L312.0 55.3L312.0 55.0L312.7 55.0L313.0 55.0L313.0 54.3L313.0 54.0L313.7 54.0L314.3 54.0L315.0 54.0L315.0 53.3L315.0 53.0L315.7 53.0L316.3 53.0L317.0 53.0L317.7 53.0L318.3 53.0L319.0 53.0L319.7 53.0L320.3 53.0L321.0 53.0L321.7 53.0L322.3 53.0L323.0 53.0L323.7 53.0L324.0 53.0L324.0 53.7L324.0 54.0L323.3 54.0L323.0 54.0L323.0 54.7L323.0 55.0L322.3 55.0L322.0 55.0L322.0 55.7L322.0 56.0L321.3 56.0L321.0 56.0L321.0 56.7L321.0 57.0L320.3 57.0L320.0 57.0L320.0 57.7L320.0 58.0L319.3 58.0L319.0 58.0L319.0 58.7L319.0 59.0L318.3 59.0L318.0 59.0L318.0 59.7L318.0 60.0L317.3 60.0L316.7 60.0L316.0 60.0L316.0 60.7L316.0 61.0L315.3 61.0L315.0 61.0L315.0 61.7L315.0 62.0L314.3 62.0L314.0 62.0L314.0 62.7L314.0 63.0L313.3 63.0L313.0 63.0L313.0 63.7L313.0 64.0L312.3 64.0L312.0 64.0L312.0 64.7L312.0 65.0L311.3 65.0L311.0 65.0L311.0 65.7L311.0 66.0L310.3 66.0L310.0 66.0L310.0 66.7L310.0 67.0L309.3 67.0L309.0 67.0L309.0 67.7L309.0 68.0L308.3 68.0L308.0 68.0L308.0 68.7L308.0 69.0L307.3 69.0L307.0 69.0L307.0 69.7L307.0 70.0L306.3 70.0L306.0 70.0L306.0 70.7L306.0 71.0L305.3 71.0L305.0 71.0L305.0 71.7L305.0 72.0L304.3 72.0L304.0 72.0L304.0 72.7L304.0 73.3L304.0 74.0L304.7 74.0L305.0 74.0L305.0 74.7L305.0 75.0L305.7 75.0L306.0 75.0L306.0 75.7L306.0 76.3L306.0 77.0L306.7 77.0L307.0 77.0L307.0 77.7L307.0 78.0L307.7 78.0L308.0 78.0L308.0 78.7L308.0 79.0L308.7 79.0L309.0 79.0L309.0 79.7L309.0 80.0L309.7 80.0L310.0 80.0L310.0 80.7L310.0 81.0L310.7 81.0L311.0 81.0L311.0 81.7L311.0 82.0L311.7 82.0L312.0 82.0L312.0 82.7L312.0 83.0L312.7 83.0L313.0 83.0L313.0 83.7L313.0 84.3L313.0 85.0L313.7 85.0L314.0 85.0L314.0 85.7L314.0 86.0L314.7 86.0L315.0 86.0L315.0 86.7L315.0 87.0L315.7 87.0L316.0 87.0L316.0 87.7L316.0 88.0L316.7 88.0L317.0 88.0L317.0 88.7L317.0 89.0L317.7 89.0L318.0 89.0L318.0 89.7L318.0 90.0L318.7 90.0L319.0 90.0L319.0 90.7L319.0 91.0L319.7 91.0L320.0 91.0L320.0 91.7L320.0 92.3L320.0 93.0L320.7 93.0L321.0 93.0L321.0 93.7L321.0 94.0L321.7 94.0L322.0 94.0L322.0 94.7L322.0 95.0L322.7 95.0L323.0 95.0L323.0 95.7L323.0 96.0L323.7 96.0L324.0 96.0L324.0 96.7L324.0 97.0L323.3 97.0L322.7 97.0L322.0 97.0L321.3 97.0L320.7 97.0L320.0 97.0L319.3 97.0L318.7 97.0L318.0 97.0L317.3 97.0L316.7 97.0L316.0 97.0L315.3 97.0L315.0 97.0L315.0 96.3L315.0 96.0L314.3 96.0L314.0 96.0L314.0 95.3L314.0 95.0L313.3 95.0L313.0 95.0L313.0 94.3L313.0 94.0L312.3 94.0L312.0 94.0L312.0 93.3L312.0 93.0L311.3 93.0L311.0 93.0L311.0 92.3L311.0 92.0L310.3 92.0L310.0 92.0L310.0 91.3L310.0 91.0L309.3 91.0L309.0 91.0L309.0 90.3L309.0 89.7L309.0 89.0L308.3 89.0L308.0 89.0L308.0 88.3L308.0 88.0L307.3 88.0L307.0 88.0L307.0 87.3L307.0 87.0L306.3 87.0L306.0 87.0L306.0 86.3L306.0 86.0L305.3 86.0L305.0 86.0L305.0 85.3L305.0 85.0L304.3 85.0L304.0 85.0L304.0 84.3L304.0 83.7L304.0 83.0L303.3 83.0L303.0 83.0L303.0 82.3L303.0 82.0L302.3 82.0L302.0 82.0L302.0 81.3L302.0 81.0L301.3 81.0L301.0 81.0L301.0 80.3L301.0 80.0L300.3 80.0L300.0 80.0L300.0 79.3L300.0 79.0L299.3 79.0L299.0 79.0L299.0 78.3L299.0 78.0L298.3 78.0L297.7 78.0L297.0 78.0L297.0 78.7L297.0 79.3L297.0 80.0L297.0 80.7L297.0 81.3L297.0 82.0L297.0 82.7L297.0 83.3L297.0 84.0L297.0 84.7L297.0 85.3L297.0 86.0L297.0 86.7L297.0 87.3L297.0 88.0L297.0 88.7L297.0 89.3L297.0 90.0L297.0 90.7L297.0 91.3L297.0 92.0L297.0 92.7L297.0 93.3L297.0 94.0L297.0 94.7L297.0 95.3L297.0 96.0L297.0 96.7L297.0 97.0L296.3 97.0L295.7 97.0L295.0 97.0L294.3 97.0L293.7 97.0L293.0 97.0L292.3 97.0L291.7 97.0L291.0 97.0L290.3 97.0L290.0 97.0L290.0 96.3L290.0 95.7L290.0 95.0L290.0 94.3L290.0 93.7L290.0 93.0L290.0 92.3L290.0 91.7L290.0 91.0L290.0 90.3L290.0 89.7L290.0 89.0L290.0 88.3L290.0 87.7L290.0 87.0L290.0 86.3L290.0 85.7L290.0 85.0L290.0 84.3L290.0 83.7L290.0 83.0L290.0 82.3L290.0 81.7L290.0 81.0L290.0 80.3L290.0 79.7L290.0 79.0L290.0 78.3L290.0 77.7L290.0 77.0L290.0 76.3L290.0 75.7L290.0 75.0L290.0 74.3L290.0 73.7L290.0 73.0L290.0 72.3L290.0 71.7L290.0 71.0L290.0 70.3L290.0 69.7L290.0 69.0L290.0 68.3L290.0 67.7L290.0 67.0L290.0 66.3L290.0 65.7L290.0 65.0L290.0 64.3L290.0 63.7L290.0 63.0L290.0 62.3L290.0 61.7L290.0 61.0L290.0 60.3L290.0 59.7L290.0 59.0L290.0 58.3L290.0 57.7L290.0 57.0L290.0 56.3L290.0 55.7L290.0 55.0L290.0 54.3L290.0 53.7L290.0 53.3Z M392.0 53.0L392.7 53.0L393.3 53.0L394.0 53.0L394.7 53.0L395.3 53.0L396.0 53.0L396.7 53.0L397.3 53.0L398.0 53.0L398.7 53.0L399.3 53.0L400.0 53.0L400.0 53.7L400.0 54.3L400.0 55.0L400.0 55.7L400.0 56.0L400.7 56.0L401.0 56.0L401.0 56.7L401.0 57.3L401.0 58.0L401.7 58.0L402.0 58.0L402.0 58.7L402.0 59.3L402.0 60.0L402.7 60.0L403.0 60.0L403.0 60.7L403.0 61.3L403.0 62.0L403.0 62.7L403.0 63.0L403.7 63.0L404.0 63.0L404.0 63.7L404.0 64.3L404.0 65.0L404.7 65.0L405.0 65.0L405.0 65.7L405.0 66.3L405.0 67.0L405.7 67.0L406.0 67.0L406.0 67.7L406.0 68.3L406.0 69.0L406.0 69.7L406.0 70.0L406.7 70.0L407.0 70.0L407.0 70.7L407.0 71.3L407.0 72.0L407.7 72.0L408.0 72.0L408.0 72.7L408.0 73.3L408.0 74.0L408.7 74.0L409.0 74.0L409.0 74.7L409.0 75.3L409.0 76.0L409.0 76.7L409.0 77.0L409.7 77.0L410.0 77.0L410.0 77.7L410.0 78.3L410.0 79.0L410.7 79.0L411.0 79.0L411.0 79.7L411.0 80.3L411.0 81.0L411.0 81.7L411.0 82.0L411.7 82.0L412.3 82.0L413.0 82.0L413.0 81.3L413.0 80.7L413.0 80.0L413.7 80.0L414.0 80.0L414.0 79.3L414.0 78.7L414.0 78.0L414.7 78.0L415.0 78.0L415.0 77.3L415.0 76.7L415.0 76.0L415.7 76.0L416.0 76.0L416.0 75.3L416.0 74.7L416.0 74.0L416.0 73.3L416.0 73.0L416.7 73.0L417.0 73.0L417.0 72.3L417.0 71.7L417.0 71.0L417.7 71.0L418.0 71.0L418.0 70.3L418.0 69.7L418.0 69.0L418.7 69.0L419.0 69.0L419.0 68.3L419.0 67.7L419.0 67.0L419.0 66.3L419.0 66.0L419.7 66.0L420.0 66.0L420.0 65.3L420.0 64.7L420.0 64.0L420.7 64.0L421.0 64.0L421.0 63.3L421.0 62.7L421.0 62.0L421.7 62.0L422.0 62.0L422.0 61.3L422.0 60.7L422.0 60.0L422.0 59.3L422.0 59.0L422.7 59.0L423.0 59.0L423.0 58.3L423.0 57.7L423.0 57.0L423.7 57.0L424.0 57.0L424.0 56.3L424.0 55.7L424.0 55.0L424.7 55.0L425.0 55.0L425.0 54.3L425.0 53.7L425.0 53.0L425.7 53.0L426.3 53.0L427.0 53.0L427.7 53.0L428.3 53.0L429.0 53.0L429.7 53.0L430.3 53.0L431.0 53.0L431.7 53.0L432.0 53.0L432.0 53.7L432.0 54.3L432.0 55.0L432.0 55.7L432.0 56.0L431.3 56.0L431.0 56.0L431.0 56.7L431.0 57.3L431.0 58.0L430.3 58.0L430.0 58.0L430.0 58.7L430.0 59.3L430.0 60.0L430.0 60.7L430.0 61.0L429.3 61.0L429.0 61.0L429.0 61.7L429.0 62.3L429.0 63.0L428.3 63.0L428.0 63.0L428.0 63.7L428.0 64.3L428.0 65.0L427.3 65.0L427.0 65.0L427.0 65.7L427.0 66.3L427.0 67.0L427.0 67.7L427.0 68.0L426.3 68.0L426.0 68.0L426.0 68.7L426.0 69.3L426.0 70.0L425.3 70.0L425.0 70.0L425.0 70.7L425.0 71.3L425.0 72.0L424.3 72.0L424.0 72.0L424.0 72.7L424.0 73.3L424.0 74.0L423.3 74.0L423.0 74.0L423.0 74.7L423.0 75.3L423.0 76.0L423.0 76.7L423.0 77.0L422.3 77.0L422.0 77.0L422.0 77.7L422.0 78.3L422.0 79.0L421.3 79.0L421.0 79.0L421.0 79.7L421.0 80.3L421.0 81.0L420.3 81.0L420.0 81.0L420.0 81.7L420.0 82.3L420.0 83.0L419.3 83.0L419.0 83.0L419.0 83.7L419.0 84.3L419.0 85.0L419.0 85.7L419.0 86.0L418.3 86.0L418.0 86.0L418.0 86.7L418.0 87.3L418.0 88.0L417.3 88.0L417.0 88.0L417.0 88.7L417.0 89.3L417.0 90.0L416.3 90.0L416.0 90.0L416.0 90.7L416.0 91.3L416.0 92.0L415.3 92.0L415.0 92.0L415.0 92.7L415.0 93.3L415.0 94.0L415.0 94.7L415.0 95.0L414.3 95.0L414.0 95.0L414.0 95.7L414.0 96.3L414.0 97.0L413.3 97.0L413.0 97.0L413.0 97.7L413.0 98.3L413.0 99.0L412.3 99.0L411.7 99.0L411.0 99.0L411.0 98.3L411.0 97.7L411.0 97.0L410.3 97.0L410.0 97.0L410.0 96.3L410.0 95.7L410.0 95.0L410.0 94.3L410.0 94.0L409.3 94.0L409.0 94.0L409.0 93.3L409.0 92.7L409.0 92.0L408.3 92.0L408.0 92.0L408.0 91.3L408.0 90.7L408.0 90.0L407.3 90.0L407.0 90.0L407.0 89.3L407.0 88.7L407.0 88.0L407.0 87.3L407.0 87.0L406.3 87.0L406.0 87.0L406.0 86.3L406.0 85.7L406.0 85.0L405.3 85.0L405.0 85.0L405.0 84.3L405.0 83.7L405.0 83.0L404.3 83.0L404.0 83.0L404.0 82.3L404.0 81.7L404.0 81.0L404.0 80.3L404.0 80.0L403.3 80.0L403.0 80.0L403.0 79.3L403.0 78.7L403.0 78.0L402.3 78.0L402.0 78.0L402.0 77.3L402.0 76.7L402.0 76.0L401.3 76.0L401.0 76.0L401.0 75.3L401.0 74.7L401.0 74.0L401.0 73.3L401.0 73.0L400.3 73.0L400.0 73.0L400.0 72.3L400.0 71.7L400.0 71.0L399.3 71.0L399.0 71.0L399.0 70.3L399.0 69.7L399.0 69.0L398.3 69.0L398.0 69.0L398.0 68.3L398.0 67.7L398.0 67.0L398.0 66.3L398.0 66.0L397.3 66.0L397.0 66.0L397.0 65.3L397.0 64.7L397.0 64.0L396.3 64.0L396.0 64.0L396.0 63.3L396.0 62.7L396.0 62.0L395.3 62.0L395.0 62.0L395.0 61.3L395.0 60.7L395.0 60.0L395.0 59.3L395.0 59.0L394.3 59.0L394.0 59.0L394.0 58.3L394.0 57.7L394.0 57.0L393.3 57.0L393.0 57.0L393.0 56.3L393.0 55.7L393.0 55.0L392.3 55.0L392.0 55.0L392.0 54.3L392.0 53.7L392.0 53.3Z M352.3 59.0L352.0 59.0L352.0 59.7L352.0 60.0L351.3 60.0L350.7 60.0L350.0 60.0L350.0 60.7L350.0 61.0L349.3 61.0L348.7 61.0L348.0 61.0L348.0 61.7L348.0 62.0L347.3 62.0L347.0 62.0L347.0 62.7L347.0 63.0L346.3 63.0L346.0 63.0L346.0 63.7L346.0 64.0L345.3 64.0L345.0 64.0L345.0 64.7L345.0 65.0L344.3 65.0L344.0 65.0L344.0 65.7L344.0 66.0L343.3 66.0L343.0 66.0L343.0 66.7L343.0 67.3L343.0 68.0L342.3 68.0L342.0 68.0L342.0 68.7L342.0 69.3L342.0 70.0L342.0 70.7L342.0 71.0L341.3 71.0L341.0 71.0L341.0 71.7L341.0 72.3L341.0 73.0L341.0 73.7L341.0 74.3L341.0 75.0L341.0 75.7L341.0 76.3L341.0 77.0L341.0 77.7L341.0 78.3L341.0 79.0L341.7 79.0L342.0 79.0L342.0 79.7L342.0 80.3L342.0 81.0L342.0 81.7L342.0 82.0L342.7 82.0L343.0 82.0L343.0 82.7L343.0 83.3L343.0 84.0L343.7 84.0L344.0 84.0L344.0 84.7L344.0 85.0L344.7 85.0L345.0 85.0L345.0 85.7L345.0 86.0L345.7 86.0L346.0 86.0L346.0 86.7L346.0 87.0L346.7 87.0L347.0 87.0L347.0 87.7L347.0 88.0L347.7 88.0L348.0 88.0L348.0 88.7L348.0 89.0L348.7 89.0L349.3 89.0L350.0 89.0L350.0 89.7L350.0 90.0L350.7 90.0L351.3 90.0L352.0 90.0L352.0 90.7L352.0 91.0L352.7 91.0L353.3 91.0L354.0 91.0L354.7 91.0L355.3 91.0L356.0 91.0L356.7 91.0L357.3 91.0L358.0 91.0L358.7 91.0L359.3 91.0L360.0 91.0L360.7 91.0L361.3 91.0L362.0 91.0L362.7 91.0L363.3 91.0L364.0 91.0L364.0 90.3L364.0 90.0L364.7 90.0L365.3 90.0L366.0 90.0L366.0 89.3L366.0 89.0L366.7 89.0L367.3 89.0L368.0 89.0L368.0 88.3L368.0 88.0L368.7 88.0L369.0 88.0L369.0 87.3L369.0 87.0L369.7 87.0L370.0 87.0L370.0 86.3L370.0 86.0L370.7 86.0L371.0 86.0L371.0 85.3L371.0 85.0L371.7 85.0L372.0 85.0L372.0 84.3L372.0 84.0L372.7 84.0L373.0 84.0L373.0 83.3L373.0 82.7L373.0 82.0L373.7 82.0L374.0 82.0L374.0 81.3L374.0 80.7L374.0 80.0L374.0 79.3L374.0 79.0L374.7 79.0L375.0 79.0L375.0 78.3L375.0 77.7L375.0 77.0L375.0 76.3L375.0 75.7L375.0 75.0L375.0 74.3L375.0 73.7L375.0 73.0L375.0 72.3L375.0 71.7L375.0 71.0L374.3 71.0L374.0 71.0L374.0 70.3L374.0 69.7L374.0 69.0L374.0 68.3L374.0 68.0L373.3 68.0L373.0 68.0L373.0 67.3L373.0 66.7L373.0 66.0L372.3 66.0L372.0 66.0L372.0 65.3L372.0 65.0L371.3 65.0L371.0 65.0L371.0 64.3L371.0 64.0L370.3 64.0L370.0 64.0L370.0 63.3L370.0 63.0L369.3 63.0L369.0 63.0L369.0 62.3L369.0 62.0L368.3 62.0L368.0 62.0L368.0 61.3L368.0 61.0L367.3 61.0L366.7 61.0L366.0 61.0L366.0 60.3L366.0 60.0L365.3 60.0L364.7 60.0L364.0 60.0L364.0 59.3L364.0 59.0L363.3 59.0L362.7 59.0L362.0 59.0L361.3 59.0L360.7 59.0L360.0 59.0L359.3 59.0L358.7 59.0L358.0 59.0L357.3 59.0L356.7 59.0L356.0 59.0L355.3 59.0L354.7 59.0L354.0 59.0L353.3 59.0L352.7 59.0Z M106.3 66.0L106.0 66.0L106.0 66.7L106.0 67.0L105.3 67.0L105.0 67.0L105.0 67.7L105.0 68.3L105.0 69.0L104.3 69.0L104.0 69.0L104.0 69.7L104.0 70.3L104.0 71.0L103.3 71.0L103.0 71.0L103.0 71.7L103.0 72.3L103.0 73.0L102.3 73.0L102.0 73.0L102.0 73.7L102.0 74.3L102.0 75.0L101.3 75.0L101.0 75.0L101.0 75.7L101.0 76.3L101.0 77.0L100.3 77.0L100.0 77.0L100.0 77.7L100.0 78.3L100.0 79.0L99.3 79.0L99.0 79.0L99.0 79.7L99.0 80.0L99.7 80.0L100.3 80.0L101.0 80.0L101.7 80.0L102.3 80.0L103.0 80.0L103.7 80.0L104.3 80.0L105.0 80.0L105.7 80.0L106.3 80.0L107.0 80.0L107.7 80.0L108.3 80.0L109.0 80.0L109.7 80.0L110.3 80.0L111.0 80.0L111.7 80.0L112.3 80.0L113.0 80.0L113.0 79.3L113.0 79.0L112.3 79.0L112.0 79.0L112.0 78.3L112.0 77.7L112.0 77.0L111.3 77.0L111.0 77.0L111.0 76.3L111.0 75.7L111.0 75.0L110.3 75.0L110.0 75.0L110.0 74.3L110.0 73.7L110.0 73.0L109.3 73.0L109.0 73.0L109.0 72.3L109.0 71.7L109.0 71.0L109.0 70.3L109.0 70.0L108.3 70.0L108.0 70.0L108.0 69.3L108.0 69.0L107.3 69.0L107.0 69.0L107.0 68.3L107.0 67.7L107.0 67.0L107.0 66.3L107.0 66.0L106.7 66.0Z"/>
<path fill="#E8833A" d="M247.0 53.0L247.7 53.0L248.3 53.0L249.0 53.0L249.7 53.0L250.3 53.0L251.0 53.0L251.7 53.0L252.3 53.0L253.0 53.0L253.7 53.0L254.3 53.0L255.0 53.0L255.7 53.0L256.3 53.0L257.0 53.0L257.0 53.7L257.0 54.0L257.7 54.0L258.3 54.0L259.0 54.0L259.0 54.7L259.0 55.0L259.7 55.0L260.0 55.0L260.0 55.7L260.0 56.0L260.7 56.0L261.0 56.0L261.0 56.7L261.0 57.3L261.0 58.0L261.7 58.0L262.0 58.0L262.0 58.7L262.0 59.3L262.0 60.0L262.7 60.0L263.0 60.0L263.0 60.7L263.0 61.3L263.0 62.0L263.0 62.7L263.0 63.3L263.0 64.0L262.3 64.0L262.0 64.0L262.0 64.7L262.0 65.3L262.0 66.0L261.3 66.0L261.0 66.0L261.0 66.7L261.0 67.3L261.0 68.0L260.3 68.0L260.0 68.0L260.0 68.7L260.0 69.0L259.3 69.0L259.0 69.0L259.0 69.7L259.0 70.0L258.3 70.0L258.0 70.0L258.0 70.7L258.0 71.0L257.3 71.0L256.7 71.0L256.0 71.0L256.0 71.7L256.0 72.0L255.3 72.0L255.0 72.0L255.0 72.7L255.0 73.0L255.7 73.0L256.0 73.0L256.0 73.7L256.0 74.0L256.7 74.0L257.0 74.0L257.0 74.7L257.0 75.3L257.0 76.0L257.7 76.0L258.0 76.0L258.0 76.7L258.0 77.0L258.7 77.0L259.0 77.0L259.0 77.7L259.0 78.0L259.7 78.0L260.0 78.0L260.0 78.7L260.0 79.0L260.7 79.0L261.0 79.0L261.0 79.7L261.0 80.0L261.7 80.0L262.0 80.0L262.0 80.7L262.0 81.0L262.7 81.0L263.0 81.0L263.0 81.7L263.0 82.0L263.7 82.0L264.0 82.0L264.0 81.3L264.0 81.0L264.7 81.0L265.0 81.0L265.0 80.3L265.0 80.0L265.7 80.0L266.0 80.0L266.0 79.3L266.0 79.0L266.7 79.0L267.0 79.0L267.0 78.3L267.0 78.0L267.7 78.0L268.0 78.0L268.0 77.3L268.0 77.0L268.7 77.0L269.0 77.0L269.0 77.7L269.0 78.0L269.7 78.0L270.0 78.0L270.0 78.7L270.0 79.0L270.7 79.0L271.0 79.0L271.0 79.7L271.0 80.0L271.7 80.0L272.0 80.0L272.0 80.7L272.0 81.3L272.0 82.0L272.0 82.7L272.0 83.0L271.3 83.0L271.0 83.0L271.0 83.7L271.0 84.0L270.3 84.0L270.0 84.0L270.0 84.7L270.0 85.0L269.3 85.0L269.0 85.0L269.0 85.7L269.0 86.0L268.3 86.0L268.0 86.0L268.0 86.7L268.0 87.3L268.0 88.0L268.7 88.0L269.0 88.0L269.0 88.7L269.0 89.0L269.7 89.0L270.0 89.0L270.0 89.7L270.0 90.3L270.0 91.0L270.7 91.0L271.0 91.0L271.0 91.7L271.0 92.0L271.7 92.0L272.0 92.0L272.0 92.7L272.0 93.0L272.7 93.0L273.0 93.0L273.0 93.7L273.0 94.0L273.7 94.0L274.0 94.0L274.0 94.7L274.0 95.0L274.7 95.0L275.0 95.0L275.0 95.7L275.0 96.0L275.7 96.0L276.0 96.0L276.0 96.7L276.0 97.0L275.3 97.0L274.7 97.0L274.0 97.0L273.3 97.0L272.7 97.0L272.0 97.0L271.3 97.0L270.7 97.0L270.0 97.0L269.3 97.0L268.7 97.0L268.0 97.0L267.3 97.0L267.0 97.0L267.0 96.3L267.0 96.0L266.3 96.0L266.0 96.0L266.0 95.3L266.0 95.0L265.3 95.0L265.0 95.0L265.0 94.3L265.0 93.7L265.0 93.0L264.3 93.0L264.0 93.0L264.0 92.3L264.0 92.0L263.3 92.0L262.7 92.0L262.0 92.0L262.0 92.7L262.0 93.0L261.3 93.0L261.0 93.0L261.0 93.7L261.0 94.0L260.3 94.0L259.7 94.0L259.0 94.0L259.0 94.7L259.0 95.0L258.3 95.0L258.0 95.0L258.0 95.7L258.0 96.0L257.3 96.0L256.7 96.0L256.0 96.0L255.3 96.0L255.0 96.0L255.0 96.7L255.0 97.0L254.3 97.0L253.7 97.0L253.0 97.0L252.3 97.0L252.0 97.0L252.0 97.7L252.0 98.0L251.3 98.0L250.7 98.0L250.0 98.0L249.3 98.0L248.7 98.0L248.0 98.0L248.0 97.3L248.0 97.0L247.3 97.0L246.7 97.0L246.0 97.0L245.3 97.0L244.7 97.0L244.0 97.0L244.0 96.3L244.0 96.0L243.3 96.0L242.7 96.0L242.0 96.0L241.3 96.0L241.0 96.0L241.0 95.3L241.0 95.0L240.3 95.0L240.0 95.0L240.0 94.3L240.0 94.0L239.3 94.0L239.0 94.0L239.0 93.3L239.0 93.0L238.3 93.0L238.0 93.0L238.0 92.3L238.0 92.0L237.3 92.0L237.0 92.0L237.0 91.3L237.0 90.7L237.0 90.0L236.3 90.0L236.0 90.0L236.0 89.3L236.0 88.7L236.0 88.0L235.3 88.0L235.0 88.0L235.0 87.3L235.0 86.7L235.0 86.0L235.0 85.3L235.0 84.7L235.0 84.0L235.0 83.3L235.0 82.7L235.0 82.0L235.7 82.0L236.0 82.0L236.0 81.3L236.0 80.7L236.0 80.0L236.7 80.0L237.0 80.0L237.0 79.3L237.0 78.7L237.0 78.0L237.7 78.0L238.0 78.0L238.0 77.3L238.0 77.0L238.7 77.0L239.0 77.0L239.0 76.3L239.0 76.0L239.7 76.0L240.0 76.0L240.0 75.3L240.0 75.0L240.7 75.0L241.0 75.0L241.0 74.3L241.0 74.0L241.7 74.0L242.3 74.0L243.0 74.0L243.0 73.3L243.0 73.0L243.7 73.0L244.0 73.0L244.0 72.3L244.0 72.0L244.7 72.0L245.0 72.0L245.0 71.3L245.0 71.0L244.3 71.0L244.0 71.0L244.0 70.3L244.0 69.7L244.0 69.0L243.3 69.0L243.0 69.0L243.0 68.3L243.0 68.0L242.3 68.0L242.0 68.0L242.0 67.3L242.0 66.7L242.0 66.0L241.3 66.0L241.0 66.0L241.0 65.3L241.0 64.7L241.0 64.0L241.0 63.3L241.0 62.7L241.0 62.0L241.0 61.3L241.0 60.7L241.0 60.0L241.0 59.3L241.0 59.0L241.7 59.0L242.0 59.0L242.0 58.3L242.0 57.7L242.0 57.0L242.7 57.0L243.0 57.0L243.0 56.3L243.0 56.0L243.7 56.0L244.0 56.0L244.0 55.3L244.0 55.0L244.7 55.0L245.0 55.0L245.0 54.3L245.0 54.0L245.7 54.0L246.3 54.0L247.0 54.0L247.0 53.3Z M249.3 58.0L249.0 58.0L249.0 58.7L249.0 59.0L248.3 59.0L248.0 59.0L248.0 59.7L248.0 60.3L248.0 61.0L247.3 61.0L247.0 61.0L247.0 61.7L247.0 62.3L247.0 63.0L247.7 63.0L248.0 63.0L248.0 63.7L248.0 64.3L248.0 65.0L248.7 65.0L249.0 65.0L249.0 65.7L249.0 66.0L249.7 66.0L250.0 66.0L250.0 66.7L250.0 67.3L250.0 68.0L250.7 68.0L251.3 68.0L252.0 68.0L252.0 67.3L252.0 67.0L252.7 67.0L253.0 67.0L253.0 66.3L253.0 66.0L253.7 66.0L254.0 66.0L254.0 65.3L254.0 65.0L254.7 65.0L255.0 65.0L255.0 64.3L255.0 64.0L255.7 64.0L256.0 64.0L256.0 63.3L256.0 62.7L256.0 62.0L256.0 61.3L256.0 60.7L256.0 60.0L255.3 60.0L255.0 60.0L255.0 59.3L255.0 59.0L254.3 59.0L254.0 59.0L254.0 58.3L254.0 58.0L253.3 58.0L252.7 58.0L252.0 58.0L251.3 58.0L250.7 58.0L250.0 58.0L249.7 58.0Z M248.3 77.0L248.0 77.0L248.0 77.7L248.0 78.0L247.3 78.0L246.7 78.0L246.0 78.0L246.0 78.7L246.0 79.0L245.3 79.0L245.0 79.0L245.0 79.7L245.0 80.0L244.3 80.0L244.0 80.0L244.0 80.7L244.0 81.0L243.3 81.0L243.0 81.0L243.0 81.7L243.0 82.0L242.3 82.0L242.0 82.0L242.0 82.7L242.0 83.3L242.0 84.0L242.0 84.7L242.0 85.3L242.0 86.0L242.0 86.7L242.0 87.3L242.0 88.0L242.7 88.0L243.0 88.0L243.0 88.7L243.0 89.0L243.7 89.0L244.0 89.0L244.0 89.7L244.0 90.0L244.7 90.0L245.0 90.0L245.0 90.7L245.0 91.0L245.7 91.0L246.3 91.0L247.0 91.0L247.0 91.7L247.0 92.0L247.7 92.0L248.3 92.0L249.0 92.0L249.7 92.0L250.3 92.0L251.0 92.0L251.7 92.0L252.0 92.0L252.0 91.3L252.0 91.0L252.7 91.0L253.3 91.0L254.0 91.0L254.0 90.3L254.0 90.0L254.7 90.0L255.0 90.0L255.0 89.3L255.0 89.0L255.7 89.0L256.3 89.0L257.0 89.0L257.0 88.3L257.0 88.0L257.7 88.0L258.0 88.0L258.0 87.3L258.0 86.7L258.0 86.0L258.0 85.3L258.0 85.0L257.3 85.0L257.0 85.0L257.0 84.3L257.0 84.0L256.3 84.0L256.0 84.0L256.0 83.3L256.0 83.0L255.3 83.0L255.0 83.0L255.0 82.3L255.0 82.0L254.3 82.0L254.0 82.0L254.0 81.3L254.0 81.0L253.3 81.0L253.0 81.0L253.0 80.3L253.0 80.0L252.3 80.0L252.0 80.0L252.0 79.3L252.0 79.0L251.3 79.0L251.0 79.0L251.0 78.3L251.0 77.7L251.0 77.0L250.3 77.0L249.7 77.0L249.0 77.0L248.7 77.0Z"/>
</svg>